{"glyphs":{"0":{"ha":842,"x_min":0,"x_max":0,"o":"m 706 163 b 679 96 706 136 699 115 l 614 31 b 543 0 594 11 571 0 l 299 0 b 228 31 271 0 247 11 l 163 96 b 136 163 143 115 136 136 l 136 764 b 163 831 136 790 143 811 l 228 896 b 299 926 247 915 271 926 l 543 926 b 614 896 571 926 594 915 l 679 831 b 706 764 699 811 706 790 l 706 163 m 628 763 b 621 782 628 769 626 776 l 563 840 b 542 849 557 846 550 849 l 300 849 b 279 840 292 849 285 846 l 221 782 b 214 763 215 776 214 769 l 214 164 b 221 144 214 157 215 150 l 279 86 b 300 78 285 81 292 78 l 542 78 b 563 86 550 78 557 81 l 621 144 b 628 165 626 150 628 158 "},"1":{"ha":842,"x_min":0,"x_max":0,"o":"m 175 0 l 175 78 l 382 78 l 382 843 l 229 707 l 175 761 l 360 926 l 460 926 l 460 78 l 667 78 l 667 0 "},"2":{"ha":842,"x_min":0,"x_max":0,"o":"m 136 0 l 136 278 b 193 367 136 317 157 350 l 611 553 b 628 578 621 557 628 567 l 628 763 b 621 782 628 769 626 776 l 563 840 b 542 849 557 846 550 849 l 300 849 b 279 840 292 849 285 846 l 186 747 l 132 800 l 228 896 b 299 926 247 915 271 926 l 543 926 b 614 896 571 926 594 915 l 679 831 b 706 764 699 811 706 790 l 706 572 b 649 483 706 533 685 500 l 231 294 b 214 269 221 290 214 281 l 214 78 l 706 78 l 706 0 "},"3":{"ha":842,"x_min":0,"x_max":0,"o":"m 706 163 b 679 96 706 136 699 115 l 614 31 b 543 0 594 11 571 0 l 299 0 b 228 31 271 0 247 11 l 132 126 l 186 179 l 279 86 b 300 78 285 81 292 78 l 542 78 b 563 86 550 78 557 81 l 621 144 b 628 164 626 150 628 157 l 628 371 b 621 390 628 378 626 385 l 569 442 b 549 450 564 447 557 450 l 336 450 l 336 528 l 549 528 b 569 536 557 528 564 531 l 621 588 b 628 607 626 593 628 600 l 628 763 b 621 782 628 769 626 776 l 563 840 b 542 849 557 846 550 849 l 300 849 b 279 840 292 849 285 846 l 186 747 l 132 800 l 228 896 b 299 926 247 915 271 926 l 543 926 b 614 896 571 926 594 915 l 679 831 b 706 764 699 811 706 790 l 706 607 b 676 538 706 581 696 557 l 628 489 l 678 439 b 706 372 697 419 706 399 l 706 163 "},"4":{"ha":842,"x_min":0,"x_max":0,"o":"m 589 264 l 589 0 l 511 0 l 511 264 l 82 264 l 82 342 l 472 926 l 589 926 l 589 342 l 706 342 l 706 264 m 511 850 l 172 342 l 511 342 "},"5":{"ha":842,"x_min":0,"x_max":0,"o":"m 706 163 b 679 96 706 136 699 115 l 614 31 b 543 0 594 11 571 0 l 299 0 b 228 31 271 0 247 11 l 132 126 l 186 179 l 279 86 b 300 78 285 81 292 78 l 542 78 b 563 86 550 78 557 81 l 621 144 b 628 164 626 150 628 157 l 628 414 b 621 429 628 421 626 424 l 563 488 b 542 496 557 493 550 496 l 175 496 l 175 926 l 667 926 l 667 849 l 253 849 l 253 574 l 543 574 b 614 543 571 574 594 563 l 679 478 b 706 415 699 458 706 442 l 706 163 "},"6":{"ha":842,"x_min":0,"x_max":0,"o":"m 656 747 l 563 840 b 542 849 557 846 550 849 l 300 849 b 279 840 292 849 285 846 l 221 782 b 214 763 215 776 214 769 l 214 467 l 290 543 b 361 574 310 563 333 574 l 543 574 b 614 543 571 574 594 563 l 679 478 b 706 411 699 458 706 438 l 706 163 b 679 96 706 136 699 115 l 614 31 b 543 0 594 11 571 0 l 299 0 b 228 31 271 0 247 11 l 163 96 b 136 163 143 115 136 136 l 136 764 b 163 831 136 790 143 811 l 228 896 b 299 926 247 915 271 926 l 543 926 b 614 896 571 926 594 915 l 710 800 m 628 408 b 621 429 628 415 626 424 l 563 488 b 542 496 557 493 550 496 l 363 496 b 342 488 354 496 347 493 l 221 367 b 214 347 215 361 214 354 l 214 164 b 221 144 214 157 215 150 l 279 86 b 300 78 285 81 292 78 l 542 78 b 563 86 550 78 557 81 l 621 144 b 628 165 626 150 628 158 "},"7":{"ha":842,"x_min":0,"x_max":0,"o":"m 306 0 l 218 0 l 615 849 l 133 849 l 133 926 l 706 926 l 706 856 "},"8":{"ha":842,"x_min":0,"x_max":0,"o":"m 706 163 b 679 96 706 136 699 115 l 614 31 b 543 0 594 11 569 0 l 299 0 b 228 31 271 0 247 11 l 163 96 b 136 163 144 114 136 136 l 136 379 b 165 450 136 410 146 431 l 214 499 l 165 547 b 136 618 146 567 136 590 l 136 764 b 163 831 136 792 143 811 l 228 896 b 299 926 246 914 271 926 l 543 926 b 614 896 569 926 596 914 l 679 831 b 706 764 699 811 706 790 l 706 618 b 676 547 706 590 696 567 l 628 499 l 676 450 b 706 379 696 431 706 410 l 706 163 m 628 763 b 621 782 628 769 626 776 l 563 840 b 542 849 557 846 550 849 l 300 849 b 279 840 292 849 285 846 l 221 782 b 214 763 215 776 214 769 l 214 618 b 221 599 214 611 215 604 l 274 546 b 294 538 279 540 286 538 l 549 538 b 569 546 557 538 564 540 l 622 599 b 628 618 628 604 628 611 m 628 379 b 621 399 628 386 626 393 l 568 451 b 547 460 563 457 556 460 l 294 460 b 274 451 286 460 279 457 l 221 399 b 214 379 215 393 214 386 l 214 164 b 221 144 214 157 215 150 l 279 86 b 300 78 285 81 292 78 l 542 78 b 563 86 550 78 557 81 l 621 144 b 628 165 626 150 628 158 "},"9":{"ha":842,"x_min":0,"x_max":0,"o":"m 706 163 b 679 96 706 136 699 115 l 614 31 b 543 0 594 11 571 0 l 299 0 b 228 31 271 0 247 11 l 132 126 l 186 179 l 279 86 b 300 78 285 81 292 78 l 542 78 b 563 86 550 78 557 81 l 621 144 b 628 164 626 150 628 157 l 628 460 l 551 383 b 481 353 532 364 508 353 l 299 353 b 228 383 271 353 247 364 l 163 449 b 136 515 143 468 136 489 l 136 764 b 163 831 136 790 143 811 l 228 896 b 299 926 247 915 271 926 l 543 926 b 614 896 571 926 594 915 l 679 831 b 706 764 699 811 706 790 l 706 163 m 628 763 b 621 782 628 769 626 776 l 563 840 b 542 849 557 846 550 849 l 300 849 b 279 840 292 849 285 846 l 221 782 b 214 761 215 776 214 768 l 214 518 b 221 497 214 511 215 503 l 279 439 b 300 431 285 433 292 431 l 479 431 b 500 439 488 431 494 433 l 621 560 b 628 579 626 565 628 572 "},"\u0000":{"ha":694,"x_min":0,"x_max":0,"o":""},"\u0001":{"ha":972,"x_min":0,"x_max":0,"o":"m 836 213 b 807 143 836 186 826 163 l 693 29 b 624 0 674 10 650 0 l 175 0 l 175 419 l 46 419 l 46 506 l 175 506 l 175 926 l 624 926 b 693 897 650 926 674 917 l 807 783 b 836 714 826 764 836 740 l 836 213 m 750 708 b 742 728 750 715 747 722 l 638 832 b 618 840 632 838 626 840 l 261 840 l 261 506 l 506 506 l 506 419 l 261 419 l 261 86 l 618 86 b 638 94 626 86 632 89 l 742 199 b 750 218 747 204 750 211 "},"\u0002":{"ha":767,"x_min":0,"x_max":0,"o":"m 669 163 b 640 89 669 135 660 108 l 579 28 b 511 0 560 8 538 0 l 256 0 b 188 28 229 0 207 8 l 126 89 b 97 160 107 108 97 132 l 97 463 b 126 533 97 490 107 514 l 188 594 b 256 622 207 614 229 622 l 442 622 l 294 769 l 213 688 l 157 743 l 239 825 l 157 907 l 213 963 l 294 881 l 376 963 l 432 907 l 350 825 l 640 533 b 669 463 660 514 669 490 l 669 163 m 590 463 b 582 482 590 471 588 476 l 528 536 b 508 544 522 542 515 544 l 258 544 b 239 536 251 544 244 542 l 185 482 b 176 463 179 476 176 471 l 176 160 b 185 140 176 151 179 146 l 239 86 b 258 78 244 81 251 78 l 508 78 b 528 86 515 78 522 81 l 582 140 b 590 167 588 146 590 158 "},"\u0003":{"ha":789,"x_min":0,"x_max":0,"o":"m 175 0 l 175 376 l 92 292 l 36 347 l 175 486 l 175 926 l 261 926 l 261 574 l 357 669 l 413 614 l 261 463 l 261 86 l 750 86 l 750 0 "},"\u0004":{"ha":351,"x_min":0,"x_max":0,"o":"m 215 463 l 215 0 l 136 0 l 136 382 l 51 297 l -4 353 l 136 493 l 136 849 l -4 849 l -4 926 l 215 926 l 215 574 l 299 657 l 354 601 "},"\u0005":{"ha":981,"x_min":0,"x_max":0,"o":"m 565 1028 l 415 1028 l 232 1211 l 332 1211 l 490 1053 l 649 1211 l 749 1211 m 864 213 b 835 143 864 186 854 163 l 721 29 b 651 0 701 10 678 0 l 329 0 b 260 29 303 0 279 10 l 117 172 l 178 232 l 315 94 b 335 86 321 89 326 86 l 646 86 b 665 94 654 86 660 89 l 769 199 b 778 218 775 204 778 211 l 778 358 b 751 386 778 372 765 385 l 203 454 b 117 551 154 460 117 501 l 117 714 b 146 783 117 740 126 764 l 260 897 b 329 926 279 917 303 926 l 651 926 b 721 897 678 926 701 917 l 864 754 l 803 694 l 665 832 b 646 840 660 838 654 840 l 335 840 b 315 832 326 840 321 838 l 211 728 b 203 708 206 722 203 715 l 203 568 b 228 540 203 554 214 542 l 778 472 b 864 375 826 467 864 425 l 864 213 "},"\u0006":{"ha":729,"x_min":0,"x_max":0,"o":"m 440 743 l 290 743 l 107 926 l 207 926 l 365 768 l 524 926 l 624 926 m 632 163 b 603 89 632 133 624 110 l 542 28 b 474 0 524 10 500 0 l 257 0 b 189 28 231 0 208 8 l 97 119 l 151 175 l 240 86 b 260 78 246 81 251 78 l 471 78 b 490 86 478 78 485 81 l 544 140 b 553 167 551 147 553 158 l 553 247 b 528 275 553 261 542 274 l 185 315 b 99 411 135 321 99 361 l 99 501 b 128 572 99 529 108 553 l 189 633 b 257 661 208 653 231 661 l 474 661 b 542 633 500 661 522 653 l 632 543 l 578 488 l 490 575 b 471 583 485 581 478 583 l 260 583 b 240 575 251 583 246 581 l 186 521 b 178 501 181 515 178 510 l 178 421 b 203 393 178 407 189 394 l 547 350 b 632 253 596 344 632 303 l 632 163 "},"\u0007":{"ha":829,"x_min":0,"x_max":0,"o":"m 458 999 l 358 999 l 571 1211 l 671 1211 m 458 410 l 458 0 l 372 0 l 372 410 l 39 926 l 140 926 l 417 500 l 692 926 l 790 926 "},"\b":{"ha":656,"x_min":0,"x_max":0,"o":"m 365 714 l 265 714 l 478 926 l 578 926 m 267 -264 l 183 -264 l 281 1 l 39 661 l 124 661 l 324 114 l 525 661 l 607 661 "},"\u000b":{"ha":914,"x_min":0,"x_max":0,"o":"m 836 376 b 807 307 836 350 826 326 l 736 236 b 668 208 717 217 694 208 l 261 208 l 261 0 l 175 0 l 175 926 l 261 926 l 261 718 l 668 718 b 735 690 694 718 717 708 l 807 618 b 836 549 826 599 836 576 l 836 376 m 750 544 b 742 564 750 553 747 558 l 682 624 b 663 632 676 629 671 632 l 261 632 l 261 294 l 661 294 b 681 303 668 294 675 297 l 742 364 b 750 383 747 369 750 375 "},"\f":{"ha":806,"x_min":0,"x_max":0,"o":"m 708 163 b 679 89 708 135 699 108 l 618 28 b 550 0 599 8 576 0 l 365 0 b 296 29 339 0 315 10 l 215 110 l 215 -265 l 136 -265 l 136 926 l 215 926 l 215 551 l 296 632 b 365 661 315 651 339 661 l 550 661 b 618 633 576 661 599 653 l 679 572 b 708 501 699 553 708 529 l 708 163 m 629 501 b 621 521 629 510 626 515 l 567 575 b 547 583 561 581 554 583 l 365 583 b 344 575 357 583 350 581 l 224 454 b 215 435 218 449 215 442 l 215 226 b 224 207 215 219 218 213 l 344 86 b 365 78 350 81 357 78 l 547 78 b 567 86 554 78 561 81 l 621 140 b 629 167 626 146 629 158 "},"\u000e":{"ha":894,"x_min":0,"x_max":0,"o":"m 522 1028 l 372 1028 l 189 1211 l 289 1211 l 447 1053 l 606 1211 l 706 1211 m 117 0 l 117 86 l 674 840 l 117 840 l 117 926 l 778 926 l 778 840 l 221 86 l 778 86 l 778 0 "},"\u000f":{"ha":647,"x_min":0,"x_max":0,"o":"m 399 743 l 249 743 l 65 926 l 165 926 l 324 768 l 482 926 l 582 926 m 58 0 l 58 78 l 488 583 l 58 583 l 58 661 l 589 661 l 589 583 l 158 78 l 589 78 l 589 0 "},"\u0015":{"ha":1154,"x_min":0,"x_max":0,"o":"m 765 0 l 765 171 b 804 226 765 196 781 215 l 1046 338 b 1054 349 1051 340 1054 343 l 1054 447 b 1051 456 1054 451 1054 453 l 1017 490 b 1006 494 1014 493 1010 494 l 879 494 b 868 490 875 494 871 493 l 808 431 l 761 476 l 821 536 b 868 556 833 549 850 556 l 1011 556 b 1058 536 1029 556 1046 549 l 1097 497 b 1115 456 1110 485 1115 472 l 1115 339 b 1078 283 1115 314 1101 294 l 835 172 b 826 160 831 169 826 165 l 826 61 l 1115 61 l 1115 0 m 347 0 l 279 0 l 782 933 l 850 933 m 75 371 l 75 431 l 190 431 l 190 860 l 115 788 l 75 828 l 179 926 l 251 926 l 251 431 l 367 431 l 367 371 "},"\u0016":{"ha":1154,"x_min":0,"x_max":0,"o":"m 986 151 l 986 0 l 925 0 l 925 151 l 665 151 l 665 213 l 900 556 l 986 556 l 986 213 l 1057 213 l 1057 151 m 347 0 l 279 0 l 782 933 l 850 933 m 75 371 l 75 431 l 190 431 l 190 860 l 115 788 l 75 828 l 179 926 l 251 926 l 251 431 l 367 431 l 367 371 m 925 493 l 732 213 l 925 213 "},"\u0017":{"ha":442,"x_min":0,"x_max":0,"o":"m 75 371 l 75 431 l 190 431 l 190 860 l 115 788 l 75 828 l 179 926 l 251 926 l 251 431 l 367 431 l 367 371 "},"\u0018":{"ha":1154,"x_min":0,"x_max":0,"o":"m 986 151 l 986 0 l 925 0 l 925 151 l 665 151 l 665 213 l 900 556 l 986 556 l 986 213 l 1057 213 l 1057 151 m 375 0 l 307 0 l 810 933 l 878 933 m 393 471 b 375 429 393 454 388 442 l 336 390 b 289 371 324 378 307 371 l 146 371 b 99 390 128 371 111 378 l 39 450 l 86 496 l 146 436 b 157 432 149 433 153 432 l 283 432 b 294 436 288 432 292 433 l 329 471 b 332 479 332 474 332 475 l 332 586 b 329 594 332 590 332 592 l 294 629 b 283 633 292 632 288 633 l 167 633 l 167 694 l 283 694 b 294 699 288 694 292 696 l 329 733 b 332 742 332 736 332 738 l 332 818 b 329 826 332 822 332 824 l 294 861 b 283 865 292 864 288 865 l 157 865 b 146 861 153 865 149 864 l 86 801 l 39 847 l 99 907 b 146 926 111 919 128 926 l 289 926 b 336 907 307 926 324 919 l 375 868 b 393 826 388 856 393 843 l 393 733 b 375 694 393 717 388 707 l 344 664 l 375 633 b 393 594 388 621 393 611 m 925 493 l 732 213 l 925 213 "},"\u0019":{"ha":442,"x_min":0,"x_max":0,"o":"m 393 471 b 375 429 393 454 388 442 l 336 390 b 289 371 324 378 307 371 l 146 371 b 99 390 128 371 111 378 l 39 450 l 86 496 l 146 436 b 157 432 149 433 153 432 l 283 432 b 294 436 288 432 292 433 l 329 471 b 332 479 332 474 332 475 l 332 586 b 329 594 332 590 332 592 l 294 629 b 283 633 292 632 288 633 l 167 633 l 167 694 l 283 694 b 294 699 288 694 292 696 l 329 733 b 332 742 332 736 332 738 l 332 818 b 329 826 332 822 332 824 l 294 861 b 283 865 292 864 288 865 l 157 865 b 146 861 153 865 149 864 l 86 801 l 39 847 l 99 907 b 146 926 111 919 128 926 l 289 926 b 336 907 307 926 324 919 l 375 868 b 393 826 388 856 393 843 l 393 733 b 375 694 393 717 388 707 l 344 664 l 375 633 b 393 594 388 621 393 611 "},"\u001a":{"ha":442,"x_min":0,"x_max":0,"o":"m 43 371 l 43 542 b 82 597 43 567 58 586 l 324 708 b 332 719 329 711 332 714 l 332 818 b 329 826 332 822 332 824 l 294 861 b 283 865 292 864 288 865 l 157 865 b 146 861 153 865 149 864 l 86 801 l 39 847 l 99 907 b 146 926 111 919 128 926 l 289 926 b 336 907 307 926 324 919 l 375 868 b 393 826 388 856 393 843 l 393 710 b 356 654 393 685 379 665 l 113 543 b 104 531 108 540 104 536 l 104 432 l 393 432 l 393 371 "},"\u001b":{"ha":421,"x_min":0,"x_max":0,"o":"m 171 529 l 171 926 l 249 926 l 249 529 m 171 -265 l 171 132 l 249 132 l 249 -265 "},"\u001c":{"ha":842,"x_min":0,"x_max":0,"o":"m 89 294 l 89 367 l 751 367 l 751 294 "},"\u001d":{"ha":842,"x_min":0,"x_max":0,"o":"m 669 28 l 421 276 l 172 28 l 122 78 l 371 326 l 122 575 l 172 625 l 421 376 l 669 625 l 719 575 l 471 326 l 719 78 "}," ":{"ha":421,"x_min":0,"x_max":0,"o":""},"!":{"ha":421,"x_min":0,"x_max":0,"o":"m 171 264 l 171 926 l 250 926 l 250 264 m 151 0 l 151 117 l 268 117 l 268 0 "},"\"":{"ha":663,"x_min":0,"x_max":0,"o":"m 411 653 l 411 926 l 492 926 l 492 653 m 169 653 l 169 926 l 250 926 l 250 653 "},"#":{"ha":842,"x_min":0,"x_max":0,"o":"m 624 585 l 567 375 l 725 375 l 725 314 l 550 314 l 467 0 l 394 0 l 479 314 l 275 314 l 192 0 l 118 0 l 203 314 l 44 314 l 44 375 l 218 375 l 275 585 l 117 585 l 117 646 l 290 646 l 376 964 l 449 964 l 364 646 l 567 646 l 653 964 l 725 964 l 639 646 l 797 646 l 797 585 m 349 585 l 292 375 l 494 375 l 551 585 "},"$":{"ha":842,"x_min":0,"x_max":0,"o":"m 715 163 b 688 94 715 136 707 114 l 622 29 b 553 0 603 10 579 0 l 457 0 l 457 -132 l 385 -132 l 385 0 l 288 0 b 219 28 261 0 239 8 l 126 121 l 181 176 l 271 86 b 290 78 276 81 283 78 l 385 78 l 385 426 l 214 449 b 126 546 164 456 126 496 l 126 764 b 154 832 126 790 135 813 l 219 897 b 289 926 239 917 263 926 l 385 926 l 385 1058 l 457 1058 l 457 926 l 554 926 b 622 899 581 926 603 918 l 715 806 l 661 750 l 571 840 b 551 849 565 846 558 849 l 457 849 l 457 499 l 628 478 b 715 381 678 472 715 431 l 715 163 m 385 849 l 290 849 b 271 840 282 849 276 846 l 213 782 b 204 763 207 776 204 771 l 204 551 b 229 524 204 538 215 525 l 385 504 m 638 375 b 613 403 638 389 626 401 l 457 419 l 457 78 l 551 78 b 571 86 560 78 565 81 l 629 144 b 638 164 635 150 638 156 "},"%":{"ha":1171,"x_min":0,"x_max":0,"o":"m 1035 96 b 1018 56 1035 81 1028 65 l 982 19 b 938 0 968 6 954 0 l 786 0 b 742 19 769 0 756 6 l 706 56 b 689 96 696 65 689 81 l 689 449 b 706 489 689 464 696 479 l 742 525 b 786 544 756 539 769 544 l 938 544 b 982 525 954 544 968 539 l 1018 489 b 1035 449 1028 479 1035 464 l 1035 96 m 368 0 l 300 0 l 803 933 l 871 933 m 482 485 b 465 444 482 469 475 454 l 429 408 b 385 389 415 394 401 389 l 233 389 b 189 408 217 389 203 394 l 153 444 b 136 485 143 454 136 469 l 136 838 b 153 878 136 853 143 868 l 189 914 b 233 933 203 928 217 933 l 385 933 b 429 914 401 933 415 928 l 465 878 b 482 838 475 868 482 853 l 482 485 m 969 443 b 965 451 969 446 968 449 l 940 476 b 932 479 939 478 935 479 l 792 479 b 783 476 789 479 785 478 l 758 451 b 754 443 756 449 754 446 l 754 101 b 758 93 754 99 756 96 l 783 68 b 792 65 785 67 789 65 l 932 65 b 940 68 935 65 939 67 l 965 93 b 969 104 968 96 969 101 m 417 832 b 413 840 417 835 415 838 l 388 865 b 379 868 386 867 382 868 l 239 868 b 231 865 236 868 232 867 l 206 840 b 201 832 203 838 201 835 l 201 490 b 206 482 201 488 203 485 l 231 457 b 239 454 232 456 236 454 l 379 454 b 388 457 382 454 386 456 l 413 482 b 417 493 415 485 417 490 "},"&":{"ha":1036,"x_min":0,"x_max":0,"o":"m 885 0 l 743 142 l 631 29 b 561 0 611 10 588 0 l 315 0 b 246 29 289 0 265 10 l 185 90 b 156 160 165 110 156 133 l 156 382 b 185 451 156 408 165 432 l 308 575 l 211 672 b 183 742 192 692 183 717 b 213 810 183 767 193 790 l 296 893 b 364 922 315 913 339 922 b 432 894 389 922 413 914 l 517 810 b 546 742 536 790 546 767 b 521 676 546 717 539 694 l 419 576 l 742 253 l 853 365 l 908 310 b 797 197 908 310 799 197 l 939 56 m 454 722 b 454 761 465 733 465 750 l 382 833 b 343 833 371 844 354 844 l 272 761 b 272 722 261 750 261 733 l 364 631 l 454 722 m 364 519 l 246 401 b 238 382 240 396 238 390 l 238 160 b 246 140 238 151 240 146 l 300 86 b 319 78 306 81 311 78 l 556 78 b 575 86 564 78 569 81 l 686 197 "},"'":{"ha":421,"x_min":0,"x_max":0,"o":"m 169 653 l 169 926 l 250 926 l 250 653 "},"(":{"ha":547,"x_min":0,"x_max":0,"o":"m 435 -268 l 164 3 b 136 71 144 22 136 44 l 136 782 b 164 850 136 808 144 831 l 435 1121 l 489 1067 l 243 821 b 214 751 224 801 214 778 l 214 101 b 243 32 214 75 224 51 l 489 -214 "},")":{"ha":547,"x_min":0,"x_max":0,"o":"m 411 71 b 383 3 411 44 403 22 l 113 -268 l 58 -214 l 304 32 b 333 101 324 51 333 75 l 333 751 b 304 821 333 778 324 801 l 58 1067 l 113 1121 l 383 850 b 411 782 403 831 411 808 l 411 71 "},"*":{"ha":832,"x_min":0,"x_max":0,"o":"m 472 582 l 632 361 l 575 318 l 415 539 l 257 318 l 200 361 l 360 582 l 97 668 l 119 735 l 381 651 l 381 926 l 451 926 l 451 651 l 713 735 l 735 668 "},"+":{"ha":842,"x_min":0,"x_max":0,"o":"m 457 294 l 457 0 l 385 0 l 385 294 l 89 294 l 89 367 l 385 367 l 385 661 l 457 661 l 457 367 l 751 367 l 751 294 "},",":{"ha":421,"x_min":0,"x_max":0,"o":"m 253 -117 b 225 -186 253 -147 246 -165 l 175 -236 l 115 -176 l 157 -135 b 167 -115 163 -129 167 -124 l 167 117 l 253 117 l 253 -117 "},"-":{"ha":700,"x_min":0,"x_max":0,"o":"m 156 296 l 156 365 l 544 365 l 544 296 "},".":{"ha":421,"x_min":0,"x_max":0,"o":"m 151 0 l 151 117 l 268 117 l 268 0 "},"/":{"ha":768,"x_min":0,"x_max":0,"o":"m 135 -117 l 56 -117 l 633 1049 l 713 1049 "},":":{"ha":421,"x_min":0,"x_max":0,"o":"m 151 544 l 151 661 l 268 661 l 268 544 m 151 0 l 151 117 l 268 117 l 268 0 "},";":{"ha":421,"x_min":0,"x_max":0,"o":"m 151 544 l 151 661 l 268 661 l 268 544 m 253 -117 b 225 -186 253 -147 246 -165 l 175 -236 l 115 -176 l 157 -135 b 167 -115 163 -129 167 -124 l 167 117 l 253 117 l 253 -117 "},"<":{"ha":842,"x_min":0,"x_max":0,"o":"m 332 331 l 611 51 l 560 0 l 229 331 l 560 661 l 611 610 "},"=":{"ha":842,"x_min":0,"x_max":0,"o":"m 90 431 l 90 503 l 751 503 l 751 431 m 90 161 l 90 233 l 751 233 l 751 161 "},">":{"ha":842,"x_min":0,"x_max":0,"o":"m 282 0 l 231 51 l 510 331 l 231 610 l 282 661 l 613 331 "},"?":{"ha":696,"x_min":0,"x_max":0,"o":"m 560 607 b 531 538 560 581 550 557 l 350 357 b 342 338 344 351 342 346 l 342 256 l 263 256 l 263 339 b 290 407 263 365 271 388 l 472 589 b 481 608 478 594 481 601 l 481 765 b 471 786 481 774 476 781 l 415 842 b 396 849 410 847 403 849 l 236 849 b 217 840 228 849 222 846 l 133 757 l 78 814 l 163 899 b 229 926 182 918 203 926 l 404 926 b 471 899 431 926 451 918 l 531 839 b 560 769 550 819 560 797 l 560 607 m 243 0 l 243 117 l 360 117 l 360 0 "},"@":{"ha":1108,"x_min":0,"x_max":0,"o":"m 953 257 b 944 238 953 250 950 243 l 886 179 b 867 171 881 174 875 171 l 749 171 b 729 179 740 171 735 174 l 671 238 l 613 179 b 593 171 607 174 601 171 l 451 171 b 432 179 443 171 438 174 l 339 272 b 331 292 333 278 331 283 l 331 579 b 339 599 331 588 333 593 l 432 692 b 451 700 438 697 443 700 l 593 700 b 613 692 601 700 607 697 l 685 619 l 711 700 l 789 700 l 758 604 l 758 271 b 767 251 758 263 761 257 l 788 231 b 828 231 806 213 815 218 l 867 269 b 875 289 872 275 875 281 l 875 717 b 867 738 875 725 872 732 l 764 840 b 744 849 758 846 751 849 l 365 849 b 346 840 358 849 351 846 l 242 736 b 233 715 236 731 233 724 l 233 133 b 242 113 233 125 236 118 l 346 8 b 365 0 351 3 358 0 l 875 0 l 875 -78 l 336 -78 b 317 -69 329 -78 322 -75 l 164 83 b 156 103 158 89 156 94 l 156 746 b 164 765 156 754 158 760 l 317 918 b 336 926 322 924 329 926 l 774 926 b 793 918 781 926 788 924 l 944 767 b 953 746 950 761 953 754 l 953 257 m 681 500 b 672 519 681 507 678 514 l 578 614 b 558 622 572 619 567 622 l 485 622 b 464 614 476 622 469 619 l 417 567 b 408 547 411 561 408 554 l 408 324 b 417 304 408 317 411 310 l 464 257 b 485 249 469 251 476 249 l 558 249 b 578 257 567 249 572 251 l 672 351 b 681 371 678 357 681 364 "},"A":{"ha":956,"x_min":0,"x_max":0,"o":"m 808 0 l 707 265 l 244 265 l 144 0 l 58 0 l 411 926 l 547 926 l 897 0 m 476 878 l 278 349 l 674 349 "},"B":{"ha":971,"x_min":0,"x_max":0,"o":"m 835 169 b 807 101 835 143 825 119 l 735 29 b 665 0 715 10 692 0 l 175 0 l 175 926 l 665 926 b 736 896 693 926 717 915 l 808 824 b 835 757 826 806 835 783 l 835 613 b 806 543 835 586 825 563 l 725 463 l 807 381 b 835 314 826 361 835 340 l 835 169 m 750 751 b 743 771 750 758 749 765 l 682 832 b 661 840 676 838 669 840 l 261 840 l 261 504 l 639 504 b 658 513 646 504 653 507 l 742 596 b 750 615 747 601 750 607 m 750 310 b 742 329 750 318 747 324 l 658 413 b 639 421 653 418 646 421 l 261 421 l 261 86 l 661 86 b 681 94 668 86 675 89 l 742 156 b 750 175 747 161 750 167 "},"C":{"ha":876,"x_min":0,"x_max":0,"o":"m 658 29 b 589 0 639 10 615 0 l 349 0 b 279 29 322 0 299 10 l 165 143 b 136 213 146 163 136 186 l 136 714 b 165 783 136 740 146 764 l 279 897 b 349 926 299 917 322 926 l 589 926 b 658 897 615 926 639 917 l 799 757 l 738 697 l 603 832 b 583 840 597 838 592 840 l 354 840 b 335 832 346 840 340 838 l 231 728 b 222 708 225 722 222 715 l 222 218 b 231 199 222 211 225 204 l 335 94 b 354 86 340 89 346 86 l 583 86 b 603 94 592 86 597 89 l 738 229 l 799 169 "},"D":{"ha":972,"x_min":0,"x_max":0,"o":"m 836 213 b 807 143 836 186 826 163 l 693 29 b 624 0 674 10 650 0 l 175 0 l 175 926 l 624 926 b 693 897 650 926 674 917 l 807 783 b 836 714 826 764 836 740 l 836 213 m 750 708 b 742 728 750 715 747 722 l 638 832 b 618 840 632 838 626 840 l 261 840 l 261 86 l 618 86 b 638 94 626 86 632 89 l 742 199 b 750 218 747 204 750 211 "},"E":{"ha":886,"x_min":0,"x_max":0,"o":"m 175 0 l 175 926 l 750 926 l 750 840 l 261 840 l 261 507 l 750 507 l 750 421 l 261 421 l 261 86 l 750 86 l 750 0 "},"F":{"ha":850,"x_min":0,"x_max":0,"o":"m 261 421 l 261 0 l 175 0 l 175 926 l 753 926 l 753 840 l 261 840 l 261 507 l 753 507 l 753 421 "},"G":{"ha":1039,"x_min":0,"x_max":0,"o":"m 832 0 l 800 146 l 683 29 b 617 0 664 10 643 0 l 349 0 b 279 29 322 0 299 10 l 165 143 b 136 213 146 163 136 186 l 136 714 b 165 783 136 740 146 764 l 279 897 b 349 926 299 917 322 926 l 674 926 b 740 897 700 926 721 917 l 881 757 l 819 697 l 685 832 b 665 840 679 838 674 840 l 354 840 b 335 832 346 840 340 838 l 231 728 b 222 708 225 722 222 715 l 222 218 b 231 199 222 211 225 204 l 335 94 b 354 86 340 89 346 86 l 608 86 b 628 94 617 86 622 89 l 792 258 b 800 278 797 264 800 269 l 800 421 l 525 421 l 525 507 l 886 507 l 886 175 l 922 0 "},"H":{"ha":1011,"x_min":0,"x_max":0,"o":"m 750 0 l 750 421 l 261 421 l 261 0 l 175 0 l 175 926 l 261 926 l 261 507 l 750 507 l 750 926 l 836 926 l 836 0 "},"I":{"ha":597,"x_min":0,"x_max":0,"o":"m 78 0 l 78 78 l 256 78 l 256 849 l 78 849 l 78 926 l 519 926 l 519 849 l 342 849 l 342 78 l 519 78 l 519 0 "},"J":{"ha":756,"x_min":0,"x_max":0,"o":"m 600 213 b 571 143 600 186 590 163 l 457 29 b 388 0 438 10 414 0 l 239 0 b 169 29 213 0 189 10 l 29 169 l 90 229 l 225 94 b 244 86 231 89 236 86 l 382 86 b 401 94 390 86 396 89 l 506 199 b 514 218 511 204 514 211 l 514 840 l 231 840 l 231 926 l 600 926 l 600 213 "},"K":{"ha":819,"x_min":0,"x_max":0,"o":"m 681 0 l 261 421 l 261 0 l 175 0 l 175 926 l 261 926 l 261 506 l 682 926 l 800 926 l 338 464 l 800 0 "},"L":{"ha":789,"x_min":0,"x_max":0,"o":"m 175 0 l 175 926 l 261 926 l 261 86 l 750 86 l 750 0 "},"M":{"ha":1200,"x_min":0,"x_max":0,"o":"m 939 0 l 939 881 l 642 0 l 558 0 l 261 881 l 261 0 l 175 0 l 175 926 l 333 926 l 600 139 l 867 926 l 1025 926 l 1025 0 "},"N":{"ha":1013,"x_min":0,"x_max":0,"o":"m 696 0 l 261 844 l 261 0 l 175 0 l 175 926 l 317 926 l 751 82 l 751 926 l 838 926 l 838 0 "},"O":{"ha":1019,"x_min":0,"x_max":0,"o":"m 883 213 b 854 143 883 186 874 163 l 740 29 b 671 0 721 10 697 0 l 349 0 b 279 29 322 0 299 10 l 165 143 b 136 213 146 163 136 186 l 136 714 b 165 783 136 740 146 764 l 279 897 b 349 926 299 917 322 926 l 671 926 b 740 897 697 926 721 917 l 854 783 b 883 714 874 764 883 740 l 883 213 m 797 708 b 789 728 797 715 794 722 l 685 832 b 665 840 679 838 674 840 l 354 840 b 335 832 346 840 340 838 l 231 728 b 222 708 225 722 222 715 l 222 218 b 231 199 222 211 225 204 l 335 94 b 354 86 340 89 346 86 l 665 86 b 685 94 674 86 679 89 l 789 199 b 797 218 794 204 797 211 "},"P":{"ha":914,"x_min":0,"x_max":0,"o":"m 836 585 b 807 515 836 558 826 535 l 736 444 b 668 417 717 425 694 417 l 261 417 l 261 0 l 175 0 l 175 926 l 668 926 b 735 899 694 926 717 917 l 807 826 b 836 757 826 807 836 785 l 836 585 m 750 753 b 742 772 750 761 747 767 l 682 832 b 663 840 676 838 671 840 l 261 840 l 261 503 l 661 503 b 681 511 668 503 675 506 l 742 572 b 750 592 747 578 750 583 "},"Q":{"ha":1019,"x_min":0,"x_max":0,"o":"m 883 213 b 854 143 883 186 874 163 l 740 29 b 671 0 721 10 697 0 l 639 0 l 707 -160 l 626 -193 l 544 0 l 349 0 b 279 29 322 0 299 10 l 165 143 b 136 213 146 163 136 186 l 136 714 b 165 783 136 740 146 764 l 279 897 b 349 926 299 917 322 926 l 671 926 b 740 897 697 926 721 917 l 854 783 b 883 714 874 764 883 740 l 883 213 m 797 708 b 789 728 797 715 794 722 l 685 832 b 665 840 679 838 674 840 l 354 840 b 335 832 346 840 340 838 l 231 728 b 222 708 225 722 222 715 l 222 218 b 231 199 222 211 225 204 l 335 94 b 354 86 340 89 346 86 l 507 86 l 474 165 l 554 201 l 603 86 l 665 86 b 685 94 674 86 679 89 l 789 199 b 797 218 794 204 797 211 "},"R":{"ha":1001,"x_min":0,"x_max":0,"o":"m 804 0 l 549 404 b 525 417 543 413 535 417 l 261 417 l 261 0 l 175 0 l 175 926 l 668 926 b 735 899 694 926 717 917 l 807 826 b 836 757 826 807 836 785 l 836 585 b 807 515 836 558 826 535 l 736 444 b 668 417 717 425 694 417 l 635 417 l 904 0 m 750 753 b 742 772 750 761 747 767 l 682 832 b 663 840 676 838 671 840 l 261 840 l 261 503 l 661 503 b 681 511 668 503 675 506 l 742 572 b 750 592 747 578 750 583 "},"S":{"ha":981,"x_min":0,"x_max":0,"o":"m 864 213 b 835 143 864 186 854 163 l 721 29 b 651 0 701 10 678 0 l 329 0 b 260 29 303 0 279 10 l 117 172 l 178 232 l 315 94 b 335 86 321 89 326 86 l 646 86 b 665 94 654 86 660 89 l 769 199 b 778 218 775 204 778 211 l 778 358 b 751 386 778 372 765 385 l 203 454 b 117 551 154 460 117 501 l 117 714 b 146 783 117 740 126 764 l 260 897 b 329 926 279 917 303 926 l 651 926 b 721 897 678 926 701 917 l 864 754 l 803 694 l 665 832 b 646 840 660 838 654 840 l 335 840 b 315 832 326 840 321 838 l 211 728 b 203 708 206 722 203 715 l 203 568 b 228 540 203 554 214 542 l 778 472 b 864 375 826 467 864 425 l 864 213 "},"T":{"ha":778,"x_min":0,"x_max":0,"o":"m 432 840 l 432 0 l 346 0 l 346 840 l 58 840 l 58 926 l 719 926 l 719 840 "},"U":{"ha":972,"x_min":0,"x_max":0,"o":"m 817 213 b 788 143 817 186 807 163 l 674 29 b 604 0 654 10 631 0 l 368 0 b 299 29 342 0 318 10 l 185 143 b 156 213 165 163 156 186 l 156 926 l 242 926 l 242 218 b 250 199 242 211 244 204 l 354 94 b 374 86 360 89 365 86 l 599 86 b 618 94 607 86 613 89 l 722 199 b 731 218 728 204 731 211 l 731 926 l 817 926 l 817 213 "},"V":{"ha":838,"x_min":0,"x_max":0,"o":"m 486 0 l 349 0 l 39 926 l 126 926 l 419 53 l 715 926 l 799 926 "},"W":{"ha":1146,"x_min":0,"x_max":0,"o":"m 875 0 l 747 0 l 572 856 l 396 0 l 268 0 l 78 926 l 168 926 l 338 75 l 510 926 l 646 926 l 813 75 l 988 926 l 1068 926 "},"X":{"ha":822,"x_min":0,"x_max":0,"o":"m 640 0 l 411 383 l 179 0 l 78 0 l 364 463 l 78 926 l 181 926 l 411 543 l 642 926 l 743 926 l 457 464 l 744 0 "},"Y":{"ha":829,"x_min":0,"x_max":0,"o":"m 458 410 l 458 0 l 372 0 l 372 410 l 39 926 l 140 926 l 417 500 l 692 926 l 790 926 "},"Z":{"ha":894,"x_min":0,"x_max":0,"o":"m 117 0 l 117 86 l 674 840 l 117 840 l 117 926 l 778 926 l 778 840 l 221 86 l 778 86 l 778 0 "},"[":{"ha":543,"x_min":0,"x_max":0,"o":"m 175 -264 l 175 1119 l 465 1119 l 465 1040 l 254 1040 l 254 -185 l 465 -185 l 465 -264 "},"\\":{"ha":768,"x_min":0,"x_max":0,"o":"m 633 -117 l 56 1049 l 135 1049 l 713 -117 "},"]":{"ha":543,"x_min":0,"x_max":0,"o":"m 78 -264 l 78 -185 l 289 -185 l 289 1040 l 78 1040 l 78 1119 l 368 1119 l 368 -264 "},"^":{"ha":842,"x_min":0,"x_max":0,"o":"m 700 549 l 421 828 l 142 549 l 90 600 l 421 931 l 751 600 "},"_":{"ha":694,"x_min":0,"x_max":0,"o":"m 0 -422 l 0 -343 l 694 -343 l 694 -422 "},"`":{"ha":646,"x_min":0,"x_max":0,"o":"m 379 714 l 167 926 l 267 926 l 479 714 "},"a":{"ha":796,"x_min":0,"x_max":0,"o":"m 651 0 l 571 81 l 518 28 b 450 0 499 8 479 0 l 236 0 b 168 28 210 0 188 8 l 107 89 b 78 160 88 108 78 133 l 78 272 b 107 342 78 299 88 322 l 165 400 b 235 429 185 419 208 429 l 571 429 l 571 501 b 563 521 571 508 568 515 l 508 575 b 489 583 503 581 497 583 l 239 583 b 219 575 231 583 225 581 l 160 515 l 106 571 l 168 633 b 236 661 188 653 208 661 l 492 661 b 560 633 518 661 542 651 l 621 572 b 650 501 639 554 650 528 l 650 121 b 658 101 650 113 653 107 l 706 54 m 571 351 l 239 351 b 219 343 231 351 225 349 l 165 289 b 157 269 160 283 157 276 l 157 160 b 165 140 157 151 160 146 l 219 86 b 239 78 225 81 232 78 l 447 78 b 467 86 454 78 461 81 l 563 182 b 571 201 568 188 571 193 "},"b":{"ha":806,"x_min":0,"x_max":0,"o":"m 708 163 b 679 89 708 135 699 108 l 618 28 b 550 0 599 8 576 0 l 365 0 b 296 29 339 0 315 10 l 215 110 l 192 0 l 114 0 l 136 110 l 136 926 l 215 926 l 215 551 l 296 632 b 365 661 315 651 339 661 l 550 661 b 618 633 576 661 599 653 l 679 572 b 708 501 699 553 708 529 l 708 163 m 629 501 b 621 521 629 510 626 515 l 567 575 b 547 583 561 581 554 583 l 365 583 b 344 575 357 583 350 581 l 224 454 b 215 435 218 449 215 442 l 215 226 b 224 207 215 219 218 213 l 344 86 b 365 78 350 81 357 78 l 547 78 b 567 86 554 78 561 81 l 621 140 b 629 167 626 146 629 158 "},"c":{"ha":724,"x_min":0,"x_max":0,"o":"m 579 28 b 511 0 560 8 539 0 l 256 0 b 188 28 229 0 207 8 l 126 89 b 97 160 107 108 97 133 l 97 501 b 126 572 97 528 107 553 l 188 633 b 256 661 207 653 228 661 l 511 661 b 579 633 539 661 560 653 l 665 547 l 610 492 l 528 575 b 508 583 522 581 517 583 l 258 583 b 239 575 250 583 244 581 l 185 521 b 176 501 179 515 176 508 l 176 160 b 185 140 176 153 179 146 l 239 86 b 258 78 244 81 250 78 l 508 78 b 528 86 517 78 522 81 l 610 169 l 665 114 "},"d":{"ha":806,"x_min":0,"x_max":0,"o":"m 614 0 l 590 110 l 510 29 b 440 0 490 10 467 0 l 256 0 b 188 28 229 0 207 8 l 126 89 b 97 163 107 108 97 135 l 97 501 b 126 572 97 529 107 553 l 188 633 b 256 661 207 653 229 661 l 440 661 b 510 632 467 661 490 651 l 590 551 l 590 926 l 669 926 l 669 110 l 692 0 m 590 435 b 582 454 590 442 588 449 l 461 575 b 440 583 456 581 449 583 l 258 583 b 239 575 251 583 244 581 l 185 521 b 176 501 179 515 176 510 l 176 167 b 185 140 176 158 179 146 l 239 86 b 258 78 244 81 251 78 l 440 78 b 461 86 449 78 456 81 l 582 207 b 590 226 588 213 590 219 "},"e":{"ha":767,"x_min":0,"x_max":0,"o":"m 176 318 l 176 160 b 185 140 176 153 179 146 l 239 86 b 258 78 244 81 250 78 l 508 78 b 528 86 517 78 522 81 l 610 169 l 665 114 l 579 28 b 511 0 560 8 539 0 l 256 0 b 188 28 229 0 207 8 l 126 89 b 97 160 107 108 97 133 l 97 501 b 126 572 97 528 107 553 l 188 633 b 256 661 207 653 228 661 l 511 661 b 579 633 538 661 560 653 l 640 572 b 669 501 660 553 669 529 l 669 318 m 590 501 b 582 521 590 508 588 515 l 528 575 b 508 583 522 581 517 583 l 258 583 b 239 575 250 583 244 581 l 185 521 b 176 501 179 515 176 508 l 176 397 l 590 397 "},"f":{"ha":486,"x_min":0,"x_max":0,"o":"m 222 583 l 222 0 l 143 0 l 143 583 l 49 583 l 49 661 l 143 661 l 143 764 b 172 838 143 794 150 815 l 233 899 b 301 926 253 918 275 926 l 438 926 l 438 849 l 304 849 b 285 840 296 849 290 846 l 231 786 b 222 760 225 781 222 767 l 222 661 l 438 661 l 438 583 "},"g":{"ha":806,"x_min":0,"x_max":0,"o":"m 669 551 l 669 -104 b 640 -175 669 -131 660 -156 l 579 -236 b 511 -264 560 -256 539 -264 l 256 -264 b 188 -236 228 -264 207 -256 l 101 -150 l 157 -94 l 239 -178 b 258 -186 244 -183 250 -186 l 508 -186 b 528 -178 517 -186 522 -183 l 582 -124 b 590 -104 588 -118 590 -111 l 590 110 l 510 29 b 440 0 490 10 467 0 l 256 0 b 188 28 229 0 207 8 l 126 89 b 97 160 107 108 97 132 l 97 499 b 126 572 97 526 107 553 l 188 633 b 256 661 207 653 229 661 l 440 661 b 510 632 467 661 490 651 l 590 551 l 614 661 l 692 661 m 590 435 b 582 454 590 442 588 449 l 461 575 b 440 583 456 581 449 583 l 258 583 b 239 575 251 583 244 581 l 185 521 b 176 494 179 515 176 503 l 176 160 b 185 140 176 151 179 146 l 239 86 b 258 78 244 81 251 78 l 440 78 b 461 86 449 78 456 81 l 582 207 b 590 226 588 213 590 219 "},"h":{"ha":810,"x_min":0,"x_max":0,"o":"m 594 0 l 594 501 b 586 521 594 510 592 515 l 532 575 b 513 583 526 581 519 583 l 365 583 b 344 575 358 583 350 581 l 224 454 b 215 435 218 449 215 443 l 215 0 l 136 0 l 136 926 l 215 926 l 215 551 l 296 632 b 365 661 315 651 339 661 l 515 661 b 583 633 542 661 564 653 l 644 572 b 674 501 664 553 674 529 l 674 0 "},"i":{"ha":361,"x_min":0,"x_max":0,"o":"m 125 810 l 125 926 l 242 926 l 242 810 m 146 0 l 146 583 l 6 583 l 6 661 l 225 661 l 225 0 "},"j":{"ha":371,"x_min":0,"x_max":0,"o":"m 135 810 l 135 926 l 251 926 l 251 810 m 235 -101 b 206 -175 235 -132 228 -153 l 144 -236 b 76 -264 125 -256 103 -264 l -62 -264 l -62 -186 l 74 -186 b 93 -178 82 -186 88 -183 l 147 -124 b 156 -97 153 -118 156 -104 l 156 583 l 15 583 l 15 661 l 235 661 l 235 -101 "},"k":{"ha":664,"x_min":0,"x_max":0,"o":"m 533 0 l 215 318 l 215 0 l 136 0 l 136 926 l 215 926 l 215 376 l 496 661 l 607 661 l 294 349 l 644 0 "},"l":{"ha":351,"x_min":0,"x_max":0,"o":"m 136 0 l 136 849 l -4 849 l -4 926 l 215 926 l 215 0 "},"m":{"ha":1110,"x_min":0,"x_max":0,"o":"m 894 0 l 894 501 b 886 521 894 510 892 515 l 832 575 b 813 583 826 581 819 583 l 744 583 b 724 575 738 583 729 581 l 603 454 b 594 435 597 449 594 443 l 594 0 l 515 0 l 515 501 b 507 521 515 510 513 515 l 453 575 b 433 583 447 581 440 583 l 365 583 b 344 575 358 583 350 581 l 224 454 b 215 435 218 449 215 443 l 215 0 l 136 0 l 136 546 l 108 661 l 189 661 l 215 551 l 296 632 b 365 661 315 651 339 661 l 436 661 b 504 633 463 661 485 653 l 590 547 l 675 632 b 744 661 694 651 718 661 l 815 661 b 883 633 842 661 864 653 l 944 572 b 974 501 964 553 974 529 l 974 0 "},"n":{"ha":810,"x_min":0,"x_max":0,"o":"m 594 0 l 594 501 b 586 521 594 510 592 515 l 532 575 b 513 583 526 581 519 583 l 365 583 b 344 575 358 583 350 581 l 224 454 b 215 435 218 449 215 443 l 215 0 l 136 0 l 136 546 l 108 661 l 189 661 l 215 551 l 296 632 b 365 661 315 651 339 661 l 515 661 b 583 633 542 661 564 653 l 644 572 b 674 501 664 553 674 529 l 674 0 "},"o":{"ha":767,"x_min":0,"x_max":0,"o":"m 669 163 b 640 89 669 135 660 108 l 579 28 b 511 0 560 8 538 0 l 256 0 b 188 28 229 0 207 8 l 126 89 b 97 160 107 108 97 132 l 97 501 b 126 572 97 529 107 553 l 188 633 b 256 661 207 653 229 661 l 511 661 b 579 633 538 661 560 653 l 640 572 b 669 501 660 553 669 529 l 669 163 m 590 501 b 582 521 590 510 588 515 l 528 575 b 508 583 522 581 515 583 l 258 583 b 239 575 251 583 244 581 l 185 521 b 176 501 179 515 176 510 l 176 160 b 185 140 176 151 179 146 l 239 86 b 258 78 244 81 251 78 l 508 78 b 528 86 515 78 522 81 l 582 140 b 590 167 588 146 590 158 "},"p":{"ha":806,"x_min":0,"x_max":0,"o":"m 708 160 b 679 89 708 132 699 108 l 618 28 b 550 0 599 8 576 0 l 365 0 b 296 29 339 0 315 10 l 215 110 l 215 -265 l 136 -265 l 136 551 l 114 661 l 192 661 l 215 551 l 296 632 b 365 661 315 651 339 661 l 550 661 b 618 633 576 661 599 653 l 679 572 b 708 499 699 553 708 526 l 708 160 m 629 494 b 621 521 629 503 626 515 l 567 575 b 547 583 561 581 554 583 l 365 583 b 344 575 357 583 350 581 l 224 454 b 215 435 218 449 215 442 l 215 226 b 224 207 215 219 218 213 l 344 86 b 365 78 350 81 357 78 l 547 78 b 567 86 554 78 561 81 l 621 140 b 629 160 626 146 629 151 "},"q":{"ha":806,"x_min":0,"x_max":0,"o":"m 669 551 l 669 -265 l 590 -265 l 590 110 l 510 29 b 440 0 490 10 467 0 l 256 0 b 188 28 229 0 207 8 l 126 89 b 97 160 107 108 97 132 l 97 499 b 126 572 97 526 107 553 l 188 633 b 256 661 207 653 229 661 l 440 661 b 510 632 467 661 490 651 l 590 551 l 614 661 l 692 661 m 590 435 b 582 454 590 442 588 449 l 461 575 b 440 583 456 581 449 583 l 258 583 b 239 575 251 583 244 581 l 185 521 b 176 494 179 515 176 503 l 176 160 b 185 140 176 151 179 146 l 239 86 b 258 78 244 81 251 78 l 440 78 b 461 86 449 78 456 81 l 582 207 b 590 226 588 213 590 219 "},"r":{"ha":711,"x_min":0,"x_max":0,"o":"m 554 403 l 554 501 b 546 521 554 510 551 515 l 492 575 b 472 583 486 581 479 583 l 365 583 b 344 575 358 583 350 581 l 224 454 b 215 435 218 449 215 443 l 215 0 l 136 0 l 136 546 l 108 661 l 189 661 l 215 551 l 296 632 b 365 661 315 651 339 661 l 475 661 b 543 633 501 661 524 653 l 604 572 b 633 501 624 553 633 529 l 633 403 "},"s":{"ha":729,"x_min":0,"x_max":0,"o":"m 632 163 b 603 89 632 133 624 110 l 542 28 b 474 0 524 10 500 0 l 257 0 b 189 28 231 0 208 8 l 97 119 l 151 175 l 240 86 b 260 78 246 81 251 78 l 471 78 b 490 86 478 78 485 81 l 544 140 b 553 167 551 147 553 158 l 553 247 b 528 275 553 261 542 274 l 185 315 b 99 411 135 321 99 361 l 99 501 b 128 572 99 529 108 553 l 189 633 b 257 661 208 653 231 661 l 474 661 b 542 633 500 661 522 653 l 632 543 l 578 488 l 490 575 b 471 583 485 581 478 583 l 260 583 b 240 575 251 583 246 581 l 186 521 b 178 501 181 515 178 510 l 178 421 b 203 393 178 407 189 394 l 547 350 b 632 253 596 344 632 303 l 632 163 "},"t":{"ha":508,"x_min":0,"x_max":0,"o":"m 314 0 b 246 28 288 0 265 8 l 185 89 b 156 163 163 111 156 132 l 156 583 l 61 583 l 61 661 l 156 661 l 156 926 l 235 926 l 235 661 l 450 661 l 450 583 l 235 583 l 235 167 b 243 140 235 160 238 146 l 297 86 b 317 78 303 81 308 78 l 450 78 l 450 0 "},"u":{"ha":810,"x_min":0,"x_max":0,"o":"m 621 0 l 594 110 l 514 29 b 444 0 494 10 471 0 l 294 0 b 226 28 268 0 246 8 l 165 89 b 136 160 146 108 136 132 l 136 661 l 215 661 l 215 160 b 224 140 215 151 218 146 l 278 86 b 297 78 283 81 290 78 l 444 78 b 465 86 451 78 460 81 l 586 207 b 594 226 592 213 594 218 l 594 661 l 674 661 l 674 115 l 701 0 "},"v":{"ha":683,"x_min":0,"x_max":0,"o":"m 403 0 l 281 0 l 58 661 l 142 661 l 343 67 l 546 661 l 625 661 "},"w":{"ha":1092,"x_min":0,"x_max":0,"o":"m 838 0 l 713 0 l 546 607 l 385 0 l 260 0 l 78 661 l 160 661 l 321 69 l 479 661 l 613 661 l 775 69 l 932 661 l 1014 661 "},"x":{"ha":650,"x_min":0,"x_max":0,"o":"m 513 0 l 325 268 l 135 0 l 39 0 l 282 331 l 40 661 l 139 661 l 326 394 l 514 661 l 611 661 l 369 332 l 611 0 "},"y":{"ha":656,"x_min":0,"x_max":0,"o":"m 267 -264 l 183 -264 l 281 1 l 39 661 l 124 661 l 324 114 l 525 661 l 607 661 "},"z":{"ha":647,"x_min":0,"x_max":0,"o":"m 58 0 l 58 78 l 488 583 l 58 583 l 58 661 l 589 661 l 589 583 l 158 78 l 589 78 l 589 0 "},"{":{"ha":547,"x_min":0,"x_max":0,"o":"m 440 -268 l 286 -114 b 257 -44 267 -94 257 -71 l 257 264 b 249 283 257 271 254 278 l 172 360 b 136 426 158 374 136 394 b 172 493 136 456 156 476 l 249 569 b 257 589 254 575 257 582 l 257 896 b 286 965 257 922 267 946 l 440 1121 l 489 1072 l 343 926 b 335 907 338 921 335 914 l 335 600 b 306 531 335 574 325 550 l 229 454 b 229 399 211 436 214 414 l 306 322 b 335 253 325 303 335 279 l 335 -56 b 343 -75 335 -62 338 -69 l 489 -219 "},"|":{"ha":421,"x_min":0,"x_max":0,"o":"m 171 -265 l 171 926 l 249 926 l 249 -265 "},"}":{"ha":547,"x_min":0,"x_max":0,"o":"m 411 426 b 375 360 411 394 389 374 l 299 283 b 290 264 293 278 290 271 l 290 -44 b 261 -114 290 -71 281 -94 l 107 -268 l 58 -219 l 204 -75 b 213 -56 210 -69 213 -62 l 213 253 b 242 322 213 279 222 303 l 318 399 b 318 454 333 414 336 436 l 242 531 b 213 600 222 550 213 574 l 213 907 b 204 926 213 914 210 921 l 58 1072 l 107 1121 l 261 965 b 290 896 281 946 290 922 l 290 589 b 299 569 290 582 293 575 l 375 493 b 411 426 392 476 411 456 "},"~":{"ha":842,"x_min":0,"x_max":0,"o":"m 565 192 b 519 174 557 183 543 174 b 472 190 499 174 479 183 l 313 350 b 283 350 304 358 293 360 l 124 190 l 72 242 l 253 422 b 299 439 260 429 278 439 b 346 421 321 439 338 429 l 504 263 b 533 263 514 254 524 254 l 718 447 l 769 396 "},"":{"ha":956,"x_min":0,"x_max":0,"o":"m 568 1056 l 568 1172 l 685 1172 l 685 1056 m 272 1056 l 272 1172 l 389 1172 l 389 1056 m 808 0 l 707 265 l 244 265 l 144 0 l 58 0 l 411 926 l 547 926 l 897 0 m 476 878 l 278 349 l 674 349 "},"":{"ha":956,"x_min":0,"x_max":0,"o":"m 808 0 l 708 265 l 244 265 l 144 0 l 58 0 l 371 818 b 317 906 339 835 317 868 l 317 1025 b 414 1122 317 1079 360 1122 l 532 1122 b 629 1025 586 1122 629 1079 l 629 906 b 586 825 629 872 613 842 l 897 0 m 551 1019 b 524 1047 551 1035 539 1047 l 422 1047 b 394 1019 407 1047 394 1035 l 394 915 b 422 888 394 900 407 888 l 524 888 b 551 915 539 888 551 900 m 501 810 b 476 829 497 821 488 829 b 451 811 465 829 456 822 l 278 349 l 675 349 "},"":{"ha":876,"x_min":0,"x_max":0,"o":"m 658 29 b 589 0 639 10 615 0 l 486 0 l 607 -121 l 468 -260 l 413 -204 l 494 -122 l 411 -39 l 450 0 l 349 0 b 279 29 322 0 299 10 l 165 143 b 136 213 146 163 136 186 l 136 714 b 165 783 136 740 146 764 l 279 897 b 349 926 299 917 322 926 l 589 926 b 658 897 615 926 639 917 l 799 757 l 738 697 l 603 832 b 583 840 597 838 592 840 l 354 840 b 335 832 346 840 340 838 l 231 728 b 222 708 225 722 222 715 l 222 218 b 231 199 222 211 225 204 l 335 94 b 354 86 340 89 346 86 l 583 86 b 603 94 592 86 597 89 l 738 229 l 799 169 "},"":{"ha":886,"x_min":0,"x_max":0,"o":"m 406 999 l 306 999 l 518 1211 l 618 1211 m 175 0 l 175 926 l 750 926 l 750 840 l 261 840 l 261 507 l 750 507 l 750 421 l 261 421 l 261 86 l 750 86 l 750 0 "},"":{"ha":1013,"x_min":0,"x_max":0,"o":"m 651 1026 b 600 1010 635 1015 618 1010 b 544 1028 581 1010 561 1017 l 422 1108 b 392 1108 413 1115 401 1115 l 278 1032 l 238 1089 l 357 1167 b 408 1183 374 1178 390 1183 b 464 1165 428 1183 447 1176 l 579 1088 b 610 1088 589 1081 600 1082 l 736 1167 l 774 1106 m 696 0 l 261 844 l 261 0 l 175 0 l 175 926 l 317 926 l 751 82 l 751 926 l 838 926 l 838 0 "},"":{"ha":1019,"x_min":0,"x_max":0,"o":"m 599 1056 l 599 1172 l 715 1172 l 715 1056 m 303 1056 l 303 1172 l 419 1172 l 419 1056 m 883 213 b 854 143 883 186 874 163 l 740 29 b 671 0 721 10 697 0 l 349 0 b 279 29 322 0 299 10 l 165 143 b 136 213 146 163 136 186 l 136 714 b 165 783 136 740 146 764 l 279 897 b 349 926 299 917 322 926 l 671 926 b 740 897 697 926 721 917 l 854 783 b 883 714 874 764 883 740 l 883 213 m 797 708 b 789 728 797 715 794 722 l 685 832 b 665 840 679 838 674 840 l 354 840 b 335 832 346 840 340 838 l 231 728 b 222 708 225 722 222 715 l 222 218 b 231 199 222 211 225 204 l 335 94 b 354 86 340 89 346 86 l 665 86 b 685 94 674 86 679 89 l 789 199 b 797 218 794 204 797 211 "},"":{"ha":972,"x_min":0,"x_max":0,"o":"m 576 1056 l 576 1172 l 693 1172 l 693 1056 m 281 1056 l 281 1172 l 397 1172 l 397 1056 m 817 213 b 788 143 817 186 807 163 l 674 29 b 604 0 654 10 631 0 l 368 0 b 299 29 342 0 318 10 l 185 143 b 156 213 165 163 156 186 l 156 926 l 242 926 l 242 218 b 250 199 242 211 244 204 l 354 94 b 374 86 360 89 365 86 l 599 86 b 618 94 607 86 613 89 l 722 199 b 731 218 728 204 731 211 l 731 926 l 817 926 l 817 213 "},"":{"ha":796,"x_min":0,"x_max":0,"o":"m 358 714 l 258 714 l 471 926 l 571 926 m 651 0 l 571 81 l 518 28 b 450 0 499 8 479 0 l 236 0 b 168 28 210 0 188 8 l 107 89 b 78 160 88 108 78 133 l 78 272 b 107 342 78 299 88 322 l 165 400 b 235 429 185 419 208 429 l 571 429 l 571 501 b 563 521 571 508 568 515 l 508 575 b 489 583 503 581 497 583 l 239 583 b 219 575 231 583 225 581 l 160 515 l 106 571 l 168 633 b 236 661 188 653 208 661 l 492 661 b 560 633 518 661 542 651 l 621 572 b 650 501 639 554 650 528 l 650 121 b 658 101 650 113 653 107 l 706 54 m 571 351 l 239 351 b 219 343 231 351 225 349 l 165 289 b 157 269 160 283 157 276 l 157 160 b 165 140 157 151 160 146 l 219 86 b 239 78 225 81 232 78 l 447 78 b 467 86 454 78 461 81 l 563 182 b 571 201 568 188 571 193 "},"":{"ha":796,"x_min":0,"x_max":0,"o":"m 418 714 l 206 926 l 306 926 l 518 714 m 651 0 l 571 81 l 518 28 b 450 0 499 8 479 0 l 236 0 b 168 28 210 0 188 8 l 107 89 b 78 160 88 108 78 133 l 78 272 b 107 342 78 299 88 322 l 165 400 b 235 429 185 419 208 429 l 571 429 l 571 501 b 563 521 571 508 568 515 l 508 575 b 489 583 503 581 497 583 l 239 583 b 219 575 231 583 225 581 l 160 515 l 106 571 l 168 633 b 236 661 188 653 208 661 l 492 661 b 560 633 518 661 542 651 l 621 572 b 650 501 639 554 650 528 l 650 121 b 658 101 650 113 653 107 l 706 54 m 571 351 l 239 351 b 219 343 231 351 225 349 l 165 289 b 157 269 160 283 157 276 l 157 160 b 165 140 157 151 160 146 l 219 86 b 239 78 225 81 232 78 l 447 78 b 467 86 454 78 461 81 l 563 182 b 571 201 568 188 571 193 "},"":{"ha":796,"x_min":0,"x_max":0,"o":"m 544 743 l 386 901 l 228 743 l 128 743 l 311 926 l 461 926 l 644 743 m 651 0 l 571 81 l 518 28 b 450 0 499 8 479 0 l 236 0 b 168 28 210 0 188 8 l 107 89 b 78 160 88 108 78 133 l 78 272 b 107 342 78 299 88 322 l 165 400 b 235 429 185 419 208 429 l 571 429 l 571 501 b 563 521 571 508 568 515 l 508 575 b 489 583 503 581 497 583 l 239 583 b 219 575 231 583 225 581 l 160 515 l 106 571 l 168 633 b 236 661 188 653 208 661 l 492 661 b 560 633 518 661 542 651 l 621 572 b 650 501 639 554 650 528 l 650 121 b 658 101 650 113 653 107 l 706 54 m 571 351 l 239 351 b 219 343 231 351 225 349 l 165 289 b 157 269 160 283 157 276 l 157 160 b 165 140 157 151 160 146 l 219 86 b 239 78 225 81 232 78 l 447 78 b 467 86 454 78 461 81 l 563 182 b 571 201 568 188 571 193 "},"":{"ha":796,"x_min":0,"x_max":0,"o":"m 471 810 l 471 926 l 588 926 l 588 810 m 175 810 l 175 926 l 292 926 l 292 810 m 651 0 l 571 81 l 518 28 b 450 0 499 8 479 0 l 236 0 b 168 28 210 0 188 8 l 107 89 b 78 160 88 108 78 133 l 78 272 b 107 342 78 299 88 322 l 165 400 b 235 429 185 419 208 429 l 571 429 l 571 501 b 563 521 571 508 568 515 l 508 575 b 489 583 503 581 497 583 l 239 583 b 219 575 231 583 225 581 l 160 515 l 106 571 l 168 633 b 236 661 188 653 208 661 l 492 661 b 560 633 518 661 542 651 l 621 572 b 650 501 639 554 650 528 l 650 121 b 658 101 650 113 653 107 l 706 54 m 571 351 l 239 351 b 219 343 231 351 225 349 l 165 289 b 157 269 160 283 157 276 l 157 160 b 165 140 157 151 160 146 l 219 86 b 239 78 225 81 232 78 l 447 78 b 467 86 454 78 461 81 l 563 182 b 571 201 568 188 571 193 "},"":{"ha":796,"x_min":0,"x_max":0,"o":"m 533 788 b 482 771 517 776 500 771 b 426 789 463 771 443 778 l 304 869 b 274 869 294 876 283 876 l 160 793 l 119 850 l 239 928 b 290 944 256 939 272 944 b 346 926 310 944 329 938 l 461 849 b 492 849 471 842 482 843 l 618 928 l 656 867 m 651 0 l 571 81 l 518 28 b 450 0 499 8 479 0 l 236 0 b 168 28 210 0 188 8 l 107 89 b 78 160 88 108 78 133 l 78 272 b 107 342 78 299 88 322 l 165 400 b 235 429 185 419 208 429 l 571 429 l 571 501 b 563 521 571 508 568 515 l 508 575 b 489 583 503 581 497 583 l 239 583 b 219 575 231 583 225 581 l 160 515 l 106 571 l 168 633 b 236 661 188 653 208 661 l 492 661 b 560 633 518 661 542 651 l 621 572 b 650 501 639 554 650 528 l 650 121 b 658 101 650 113 653 107 l 706 54 m 571 351 l 239 351 b 219 343 231 351 225 349 l 165 289 b 157 269 160 283 157 276 l 157 160 b 165 140 157 151 160 146 l 219 86 b 239 78 225 81 232 78 l 447 78 b 467 86 454 78 461 81 l 563 182 b 571 201 568 188 571 193 "},"":{"ha":796,"x_min":0,"x_max":0,"o":"m 651 0 l 571 81 l 518 28 b 450 0 499 8 479 0 l 236 0 b 168 28 210 0 188 8 l 107 89 b 78 160 88 108 78 133 l 78 272 b 107 342 78 299 88 322 l 165 400 b 235 429 185 419 208 429 l 571 429 l 571 501 b 563 521 571 508 568 515 l 508 575 b 489 583 503 581 497 583 l 239 583 b 219 575 231 583 225 581 l 160 515 l 106 571 l 168 633 b 218 660 194 660 218 660 b 215 679 218 660 215 671 l 215 796 b 307 888 215 847 256 888 l 418 888 b 511 796 469 888 511 847 l 511 679 b 508 660 511 669 508 660 b 560 633 508 660 533 660 l 621 572 b 650 501 639 554 650 528 l 650 121 b 658 101 650 113 653 107 l 706 54 m 438 788 b 411 814 438 801 425 814 l 315 814 b 289 788 301 814 289 801 l 289 688 b 315 661 289 674 303 661 l 411 661 b 438 688 424 661 438 674 m 571 351 l 239 351 b 219 343 231 351 225 349 l 165 289 b 157 269 160 283 157 276 l 157 160 b 165 140 157 151 160 146 l 219 86 b 239 78 225 81 232 78 l 447 78 b 467 86 454 78 461 81 l 563 182 b 571 201 568 188 571 193 "},"":{"ha":724,"x_min":0,"x_max":0,"o":"m 579 28 b 511 0 560 8 539 0 l 393 0 l 515 -122 l 376 -261 l 325 -210 l 413 -122 l 324 -33 l 357 0 l 256 0 b 188 28 229 0 207 8 l 126 89 b 97 160 107 108 97 133 l 97 501 b 126 572 97 528 107 553 l 188 633 b 256 661 207 653 228 661 l 511 661 b 579 633 539 661 560 653 l 665 547 l 610 492 l 528 575 b 508 583 522 581 517 583 l 258 583 b 239 575 250 583 244 581 l 185 521 b 176 501 179 515 176 508 l 176 160 b 185 140 176 153 179 146 l 239 86 b 258 78 244 81 250 78 l 508 78 b 528 86 517 78 522 81 l 610 169 l 665 114 "},"":{"ha":767,"x_min":0,"x_max":0,"o":"m 378 714 l 278 714 l 490 926 l 590 926 m 176 318 l 176 160 b 185 140 176 153 179 146 l 239 86 b 258 78 244 81 250 78 l 508 78 b 528 86 517 78 522 81 l 610 169 l 665 114 l 579 28 b 511 0 560 8 539 0 l 256 0 b 188 28 229 0 207 8 l 126 89 b 97 160 107 108 97 133 l 97 501 b 126 572 97 528 107 553 l 188 633 b 256 661 207 653 228 661 l 511 661 b 579 633 538 661 560 653 l 640 572 b 669 501 660 553 669 529 l 669 318 m 590 501 b 582 521 590 508 588 515 l 528 575 b 508 583 522 581 517 583 l 258 583 b 239 575 250 583 244 581 l 185 521 b 176 501 179 515 176 508 l 176 397 l 590 397 "},"":{"ha":767,"x_min":0,"x_max":0,"o":"m 407 714 l 194 926 l 294 926 l 507 714 m 176 318 l 176 160 b 185 140 176 153 179 146 l 239 86 b 258 78 244 81 250 78 l 508 78 b 528 86 517 78 522 81 l 610 169 l 665 114 l 579 28 b 511 0 560 8 539 0 l 256 0 b 188 28 229 0 207 8 l 126 89 b 97 160 107 108 97 133 l 97 501 b 126 572 97 528 107 553 l 188 633 b 256 661 207 653 228 661 l 511 661 b 579 633 538 661 560 653 l 640 572 b 669 501 660 553 669 529 l 669 318 m 590 501 b 582 521 590 508 588 515 l 528 575 b 508 583 522 581 517 583 l 258 583 b 239 575 250 583 244 581 l 185 521 b 176 501 179 515 176 508 l 176 397 l 590 397 "},"":{"ha":767,"x_min":0,"x_max":0,"o":"m 542 743 l 383 901 l 225 743 l 125 743 l 308 926 l 458 926 l 642 743 m 176 318 l 176 160 b 185 140 176 153 179 146 l 239 86 b 258 78 244 81 250 78 l 508 78 b 528 86 517 78 522 81 l 610 169 l 665 114 l 579 28 b 511 0 560 8 539 0 l 256 0 b 188 28 229 0 207 8 l 126 89 b 97 160 107 108 97 133 l 97 501 b 126 572 97 528 107 553 l 188 633 b 256 661 207 653 228 661 l 511 661 b 579 633 538 661 560 653 l 640 572 b 669 501 660 553 669 529 l 669 318 m 590 501 b 582 521 590 508 588 515 l 528 575 b 508 583 522 581 517 583 l 258 583 b 239 575 250 583 244 581 l 185 521 b 176 501 179 515 176 508 l 176 397 l 590 397 "},"":{"ha":767,"x_min":0,"x_max":0,"o":"m 465 810 l 465 926 l 582 926 l 582 810 m 169 810 l 169 926 l 286 926 l 286 810 m 176 318 l 176 160 b 185 140 176 153 179 146 l 239 86 b 258 78 244 81 250 78 l 508 78 b 528 86 517 78 522 81 l 610 169 l 665 114 l 579 28 b 511 0 560 8 539 0 l 256 0 b 188 28 229 0 207 8 l 126 89 b 97 160 107 108 97 133 l 97 501 b 126 572 97 528 107 553 l 188 633 b 256 661 207 653 228 661 l 511 661 b 579 633 538 661 560 653 l 640 572 b 669 501 660 553 669 529 l 669 318 m 590 501 b 582 521 590 508 588 515 l 528 575 b 508 583 522 581 517 583 l 258 583 b 239 575 250 583 244 581 l 185 521 b 176 501 179 515 176 508 l 176 397 l 590 397 "},"":{"ha":361,"x_min":0,"x_max":0,"o":"m 67 714 l -33 714 l 179 926 l 279 926 m 146 0 l 146 583 l 6 583 l 6 661 l 225 661 l 225 0 "},"":{"ha":361,"x_min":0,"x_max":0,"o":"m 157 714 l -56 926 l 44 926 l 257 714 m 146 0 l 146 583 l 6 583 l 6 661 l 225 661 l 225 0 "},"":{"ha":361,"x_min":0,"x_max":0,"o":"m 314 743 l 156 901 l -3 743 l -103 743 l 81 926 l 231 926 l 414 743 m 146 0 l 146 583 l 6 583 l 6 661 l 225 661 l 225 0 "},"":{"ha":361,"x_min":0,"x_max":0,"o":"m 244 810 l 244 926 l 361 926 l 361 810 m -51 810 l -51 926 l 65 926 l 65 810 m 146 0 l 146 583 l 6 583 l 6 661 l 225 661 l 225 0 "},"":{"ha":810,"x_min":0,"x_max":0,"o":"m 543 788 b 492 771 526 776 510 771 b 436 789 472 771 453 778 l 314 869 b 283 869 304 876 293 876 l 169 793 l 129 850 l 249 928 b 300 944 265 939 282 944 b 356 926 319 944 339 938 l 471 849 b 501 849 481 842 492 843 l 628 928 l 665 867 m 594 0 l 594 501 b 586 521 594 510 592 515 l 532 575 b 513 583 526 581 519 583 l 365 583 b 344 575 358 583 350 581 l 224 454 b 215 435 218 449 215 443 l 215 0 l 136 0 l 136 546 l 108 661 l 189 661 l 215 551 l 296 632 b 365 661 315 651 339 661 l 515 661 b 583 633 542 661 564 653 l 644 572 b 674 501 664 553 674 529 l 674 0 "},"":{"ha":767,"x_min":0,"x_max":0,"o":"m 368 714 l 268 714 l 481 926 l 581 926 m 669 163 b 640 89 669 135 660 108 l 579 28 b 511 0 560 8 538 0 l 256 0 b 188 28 229 0 207 8 l 126 89 b 97 160 107 108 97 132 l 97 501 b 126 572 97 529 107 553 l 188 633 b 256 661 207 653 229 661 l 511 661 b 579 633 538 661 560 653 l 640 572 b 669 501 660 553 669 529 l 669 163 m 590 501 b 582 521 590 510 588 515 l 528 575 b 508 583 522 581 515 583 l 258 583 b 239 575 251 583 244 581 l 185 521 b 176 501 179 515 176 510 l 176 160 b 185 140 176 151 179 146 l 239 86 b 258 78 244 81 251 78 l 508 78 b 528 86 515 78 522 81 l 582 140 b 590 167 588 146 590 158 "},"":{"ha":767,"x_min":0,"x_max":0,"o":"m 396 714 l 183 926 l 283 926 l 496 714 m 669 163 b 640 89 669 135 660 108 l 579 28 b 511 0 560 8 538 0 l 256 0 b 188 28 229 0 207 8 l 126 89 b 97 160 107 108 97 132 l 97 501 b 126 572 97 529 107 553 l 188 633 b 256 661 207 653 229 661 l 511 661 b 579 633 538 661 560 653 l 640 572 b 669 501 660 553 669 529 l 669 163 m 590 501 b 582 521 590 510 588 515 l 528 575 b 508 583 522 581 515 583 l 258 583 b 239 575 251 583 244 581 l 185 521 b 176 501 179 515 176 510 l 176 160 b 185 140 176 151 179 146 l 239 86 b 258 78 244 81 251 78 l 508 78 b 528 86 515 78 522 81 l 582 140 b 590 167 588 146 590 158 "},"":{"ha":767,"x_min":0,"x_max":0,"o":"m 542 743 l 383 901 l 225 743 l 125 743 l 308 926 l 458 926 l 642 743 m 669 163 b 640 89 669 135 660 108 l 579 28 b 511 0 560 8 538 0 l 256 0 b 188 28 229 0 207 8 l 126 89 b 97 160 107 108 97 132 l 97 501 b 126 572 97 529 107 553 l 188 633 b 256 661 207 653 229 661 l 511 661 b 579 633 538 661 560 653 l 640 572 b 669 501 660 553 669 529 l 669 163 m 590 501 b 582 521 590 510 588 515 l 528 575 b 508 583 522 581 515 583 l 258 583 b 239 575 251 583 244 581 l 185 521 b 176 501 179 515 176 510 l 176 160 b 185 140 176 151 179 146 l 239 86 b 258 78 244 81 251 78 l 508 78 b 528 86 515 78 522 81 l 582 140 b 590 167 588 146 590 158 "},"":{"ha":767,"x_min":0,"x_max":0,"o":"m 472 810 l 472 926 l 589 926 l 589 810 m 176 810 l 176 926 l 293 926 l 293 810 m 669 163 b 640 89 669 135 660 108 l 579 28 b 511 0 560 8 538 0 l 256 0 b 188 28 229 0 207 8 l 126 89 b 97 160 107 108 97 132 l 97 501 b 126 572 97 529 107 553 l 188 633 b 256 661 207 653 229 661 l 511 661 b 579 633 538 661 560 653 l 640 572 b 669 501 660 553 669 529 l 669 163 m 590 501 b 582 521 590 510 588 515 l 528 575 b 508 583 522 581 515 583 l 258 583 b 239 575 251 583 244 581 l 185 521 b 176 501 179 515 176 510 l 176 160 b 185 140 176 151 179 146 l 239 86 b 258 78 244 81 251 78 l 508 78 b 528 86 515 78 522 81 l 582 140 b 590 167 588 146 590 158 "},"":{"ha":767,"x_min":0,"x_max":0,"o":"m 529 788 b 478 771 513 776 496 771 b 422 789 458 771 439 778 l 300 869 b 269 869 290 876 279 876 l 156 793 l 115 850 l 235 928 b 286 944 251 939 268 944 b 342 926 306 944 325 938 l 457 849 b 488 849 467 842 478 843 l 614 928 l 651 867 m 669 163 b 640 89 669 135 660 108 l 579 28 b 511 0 560 8 538 0 l 256 0 b 188 28 229 0 207 8 l 126 89 b 97 160 107 108 97 132 l 97 501 b 126 572 97 529 107 553 l 188 633 b 256 661 207 653 229 661 l 511 661 b 579 633 538 661 560 653 l 640 572 b 669 501 660 553 669 529 l 669 163 m 590 501 b 582 521 590 510 588 515 l 528 575 b 508 583 522 581 515 583 l 258 583 b 239 575 251 583 244 581 l 185 521 b 176 501 179 515 176 510 l 176 160 b 185 140 176 151 179 146 l 239 86 b 258 78 244 81 251 78 l 508 78 b 528 86 515 78 522 81 l 582 140 b 590 167 588 146 590 158 "},"":{"ha":810,"x_min":0,"x_max":0,"o":"m 390 714 l 290 714 l 503 926 l 603 926 m 621 0 l 594 110 l 514 29 b 444 0 494 10 471 0 l 294 0 b 226 28 268 0 246 8 l 165 89 b 136 160 146 108 136 132 l 136 661 l 215 661 l 215 160 b 224 140 215 151 218 146 l 278 86 b 297 78 283 81 290 78 l 444 78 b 465 86 451 78 460 81 l 586 207 b 594 226 592 213 594 218 l 594 661 l 674 661 l 674 115 l 701 0 "},"":{"ha":810,"x_min":0,"x_max":0,"o":"m 432 714 l 219 926 l 319 926 l 532 714 m 621 0 l 594 110 l 514 29 b 444 0 494 10 471 0 l 294 0 b 226 28 268 0 246 8 l 165 89 b 136 160 146 108 136 132 l 136 661 l 215 661 l 215 160 b 224 140 215 151 218 146 l 278 86 b 297 78 283 81 290 78 l 444 78 b 465 86 451 78 460 81 l 586 207 b 594 226 592 213 594 218 l 594 661 l 674 661 l 674 115 l 701 0 "},"":{"ha":810,"x_min":0,"x_max":0,"o":"m 564 743 l 406 901 l 247 743 l 147 743 l 331 926 l 481 926 l 664 743 m 621 0 l 594 110 l 514 29 b 444 0 494 10 471 0 l 294 0 b 226 28 268 0 246 8 l 165 89 b 136 160 146 108 136 132 l 136 661 l 215 661 l 215 160 b 224 140 215 151 218 146 l 278 86 b 297 78 283 81 290 78 l 444 78 b 465 86 451 78 460 81 l 586 207 b 594 226 592 213 594 218 l 594 661 l 674 661 l 674 115 l 701 0 "},"":{"ha":810,"x_min":0,"x_max":0,"o":"m 494 810 l 494 926 l 611 926 l 611 810 m 199 810 l 199 926 l 315 926 l 315 810 m 621 0 l 594 110 l 514 29 b 444 0 494 10 471 0 l 294 0 b 226 28 268 0 246 8 l 165 89 b 136 160 146 108 136 132 l 136 661 l 215 661 l 215 160 b 224 140 215 151 218 146 l 278 86 b 297 78 283 81 290 78 l 444 78 b 465 86 451 78 460 81 l 586 207 b 594 226 592 213 594 218 l 594 661 l 674 661 l 674 115 l 701 0 "}," ":{"ha":842,"x_min":0,"x_max":0,"o":"m 460 586 l 460 -126 l 382 -126 l 382 586 l 171 586 l 171 664 l 382 664 l 382 929 l 460 929 l 460 664 l 671 664 l 671 586 "},"¡":{"ha":842,"x_min":0,"x_max":0,"o":"m 608 640 b 588 564 608 615 608 585 b 511 543 565 542 532 543 l 331 543 b 254 564 310 543 276 542 b 233 640 233 585 233 615 l 233 829 b 254 906 233 854 233 885 b 331 926 276 928 310 926 l 511 926 b 588 906 532 926 565 928 b 608 829 608 885 608 854 l 608 640 m 540 825 b 507 858 540 850 529 858 l 335 858 b 301 825 314 858 301 850 l 301 644 b 335 611 301 619 314 611 l 507 611 b 540 644 529 611 540 619 "},"¢":{"ha":842,"x_min":0,"x_max":0,"o":"m 619 28 b 551 0 600 8 579 0 l 460 0 l 460 -133 l 388 -133 l 388 0 l 296 0 b 228 28 269 0 247 8 l 167 89 b 138 160 147 108 138 133 l 138 501 b 167 572 138 528 147 553 l 228 633 b 296 661 247 653 268 661 l 388 661 l 388 799 l 460 799 l 460 661 l 551 661 b 619 633 579 661 600 653 l 706 547 l 650 492 l 568 575 b 549 583 563 581 557 583 l 460 583 l 460 78 l 549 78 b 568 86 557 78 563 81 l 650 169 l 706 114 m 388 583 l 299 583 b 279 575 290 583 285 581 l 225 521 b 217 501 219 515 217 508 l 217 160 b 225 140 217 153 219 146 l 279 86 b 299 78 285 81 290 78 l 388 78 "},"£":{"ha":842,"x_min":0,"x_max":0,"o":"m 117 0 l 117 78 l 196 78 l 196 424 l 117 424 l 117 501 l 196 501 l 196 764 b 224 832 196 790 204 813 l 289 897 b 358 926 308 917 332 926 l 622 926 b 692 897 649 926 672 917 l 779 810 l 722 753 l 635 840 b 615 849 629 846 622 849 l 364 849 b 343 840 356 849 349 846 l 282 779 b 275 760 276 774 275 767 l 275 501 l 703 501 l 703 424 l 275 424 l 275 78 l 779 78 l 779 0 "},"¤":{"ha":842,"x_min":0,"x_max":0,"o":"m 626 318 l 222 560 b 175 643 192 578 175 608 l 175 771 b 204 840 175 797 185 821 l 261 897 b 331 926 281 917 304 926 l 510 926 b 576 900 536 926 557 919 l 667 810 l 613 756 l 528 840 b 508 849 522 846 515 849 l 335 849 b 314 840 326 849 319 846 l 261 788 b 254 768 256 782 254 775 l 254 647 b 268 624 254 638 260 629 l 667 388 m 667 24 b 638 -46 667 -3 657 -26 l 581 -103 b 511 -132 561 -122 538 -132 l 332 -132 b 265 -106 306 -132 285 -125 l 175 -15 l 229 39 l 314 -46 b 333 -54 319 -51 326 -54 l 507 -54 b 528 -46 515 -54 522 -51 l 581 7 b 588 26 586 13 588 19 l 588 147 b 574 171 588 157 582 165 l 175 407 l 215 476 l 619 235 b 667 151 650 217 667 186 l 667 24 "},"¥":{"ha":694,"x_min":0,"x_max":0,"o":"m 250 367 l 250 561 l 444 561 l 444 367 "},"¦":{"ha":842,"x_min":0,"x_max":0,"o":"m 589 0 l 589 849 l 472 849 l 472 0 l 394 0 l 394 442 l 244 442 b 174 472 217 442 193 453 l 101 544 b 78 611 83 563 78 585 l 78 757 b 101 824 78 783 83 806 l 174 896 b 244 926 193 915 217 926 l 667 926 l 667 0 m 394 849 l 249 849 b 228 840 240 849 233 846 l 163 775 b 156 756 157 769 156 763 l 156 613 b 163 593 156 606 157 599 l 228 528 b 249 519 233 522 240 519 l 394 519 "},"§":{"ha":783,"x_min":0,"x_max":0,"o":"m 686 160 b 657 90 686 133 676 110 l 596 29 b 526 0 576 10 553 0 l 275 0 l 275 78 l 518 78 b 538 86 526 78 532 81 l 599 147 b 607 167 604 153 607 160 l 607 374 b 599 393 607 381 604 388 l 549 443 b 529 451 543 449 538 451 l 314 451 l 314 529 l 528 529 b 547 536 535 529 542 531 l 599 588 b 607 608 604 593 607 600 l 607 763 b 600 782 607 771 606 776 l 542 840 b 521 849 536 846 528 849 l 282 849 b 261 840 274 849 267 846 l 203 782 b 196 763 197 776 196 769 l 196 -264 l 117 -264 l 117 764 b 143 831 117 790 125 813 l 208 896 b 279 926 228 915 251 926 l 524 926 b 594 896 550 926 576 914 l 660 831 b 686 764 679 811 686 792 l 686 608 b 657 538 686 581 676 557 l 610 490 l 658 442 b 686 375 678 422 686 401 l 686 160 "},"¨":{"ha":756,"x_min":0,"x_max":0,"o":"m 697 639 b 378 319 697 463 554 319 b 58 639 201 319 58 463 b 378 958 58 815 201 958 b 697 639 554 958 697 815 m 651 639 b 378 915 651 790 529 915 b 104 639 226 915 104 790 b 378 363 104 488 226 363 b 651 639 529 363 651 488 m 479 439 l 361 606 b 346 614 357 611 351 614 l 308 614 l 308 439 l 264 439 l 264 840 l 438 840 b 483 821 456 840 471 833 l 510 793 b 525 750 522 782 525 768 l 525 704 b 510 661 525 686 522 672 l 483 633 b 438 614 471 621 456 614 l 404 614 l 529 439 m 481 751 b 476 764 481 756 481 761 l 447 793 b 435 799 444 797 439 799 l 308 799 l 308 657 l 435 657 b 447 663 439 657 444 658 l 476 692 b 481 704 481 694 481 700 "},"©":{"ha":1147,"x_min":0,"x_max":0,"o":"m 1069 463 b 574 -33 1069 189 847 -33 b 78 463 300 -33 78 189 b 574 958 78 736 300 958 b 1069 463 847 958 1069 736 m 1000 463 b 574 892 1000 699 810 892 b 147 463 338 892 147 699 b 574 33 147 226 338 33 b 1000 463 810 33 1000 226 m 721 167 b 674 147 707 154 692 147 l 468 147 b 421 167 450 147 435 154 l 343 244 b 324 292 329 258 324 274 l 324 635 b 343 682 324 653 329 668 l 421 760 b 468 779 435 774 450 779 l 674 779 b 721 760 692 779 707 774 l 817 664 l 769 617 l 682 704 b 669 710 678 708 675 710 l 472 710 b 460 704 467 710 464 708 l 399 643 b 393 629 394 639 393 633 l 393 297 b 399 283 393 293 394 288 l 460 222 b 472 217 464 218 467 217 l 669 217 b 682 222 675 217 678 218 l 769 310 l 817 263 "},"ª":{"ha":1307,"x_min":0,"x_max":0,"o":"m 1063 325 l 1063 871 l 885 325 l 794 325 l 617 871 l 617 325 l 547 325 l 547 926 l 669 926 l 839 394 l 1010 926 l 1132 926 l 1132 325 m 282 857 l 282 325 l 213 325 l 213 857 l 19 857 l 19 926 l 475 926 l 475 857 "},"«":{"ha":646,"x_min":0,"x_max":0,"o":"m 267 714 l 167 714 l 379 926 l 479 926 "},"¬":{"ha":646,"x_min":0,"x_max":0,"o":"m 413 810 l 413 926 l 529 926 l 529 810 m 117 810 l 117 926 l 233 926 l 233 810 "},"­":{"ha":842,"x_min":0,"x_max":0,"o":"m 300 161 l 139 0 l 90 49 l 203 161 l 90 161 l 90 233 l 276 233 l 474 431 l 90 431 l 90 503 l 546 503 l 704 661 l 751 614 l 640 503 l 751 503 l 751 431 l 568 431 l 372 233 l 751 233 l 751 161 "},"®":{"ha":1218,"x_min":0,"x_max":0,"o":"m 608 0 l 608 421 l 242 421 l 242 0 l 156 0 l 156 715 b 186 786 156 743 167 767 l 299 899 b 365 926 317 917 339 926 l 1082 926 l 1082 840 l 694 840 l 694 507 l 1082 507 l 1082 421 l 694 421 l 694 86 l 1082 86 l 1082 0 m 608 840 l 371 840 b 351 832 364 840 357 838 l 250 731 b 242 711 244 725 242 719 l 242 507 l 608 507 "},"¯":{"ha":1019,"x_min":0,"x_max":0,"o":"m 883 213 b 854 143 883 186 874 163 l 740 29 b 671 0 721 10 697 0 l 442 0 l 396 -193 l 318 -174 l 360 0 l 349 0 b 279 29 322 0 299 10 l 165 143 b 136 213 146 163 136 186 l 136 714 b 165 783 136 740 146 764 l 279 897 b 349 926 299 917 322 926 l 582 926 l 629 1122 l 706 1104 l 663 926 l 671 926 b 740 897 697 926 721 917 l 854 783 b 883 714 874 764 883 740 l 883 213 m 797 708 b 789 728 797 715 794 722 l 685 832 b 665 840 679 838 674 840 l 643 840 l 463 86 l 665 86 b 685 94 674 86 679 89 l 789 199 b 797 218 794 204 797 211 m 354 840 b 335 832 346 840 340 838 l 231 728 b 222 708 225 722 222 715 l 222 218 b 231 199 222 211 225 204 l 335 94 b 354 86 340 89 346 86 l 381 86 l 561 840 "},"°":{"ha":1121,"x_min":0,"x_max":0,"o":"m 844 544 l 592 803 l 594 376 b 567 310 594 349 585 328 l 257 0 l 208 47 l 518 357 b 526 376 524 363 526 368 l 529 803 l 276 544 l 228 593 l 561 926 l 893 593 "},"±":{"ha":842,"x_min":0,"x_max":0,"o":"m 457 333 l 457 78 l 385 78 l 385 333 l 90 333 l 90 406 l 385 406 l 385 661 l 457 661 l 457 406 l 751 406 l 751 333 m 90 -72 l 90 0 l 751 0 l 751 -72 "},"²":{"ha":842,"x_min":0,"x_max":0,"o":"m 529 78 l 238 369 l 529 661 l 581 610 l 340 369 l 581 129 m 193 -72 l 193 0 l 649 0 l 649 -72 "},"³":{"ha":842,"x_min":0,"x_max":0,"o":"m 313 78 l 261 129 l 501 369 l 261 610 l 313 661 l 604 369 m 193 -72 l 193 0 l 649 0 l 649 -72 "},"´":{"ha":842,"x_min":0,"x_max":0,"o":"m 564 586 l 711 586 l 711 517 l 519 517 l 463 431 l 463 413 l 711 413 l 711 343 l 463 343 l 463 0 l 379 0 l 379 343 l 131 343 l 131 413 l 379 413 l 379 431 l 321 517 l 131 517 l 131 586 l 278 586 l 57 926 l 157 926 l 421 514 l 685 926 l 785 926 "},"µ":{"ha":842,"x_min":0,"x_max":0,"o":"m 638 0 l 611 110 l 531 29 b 461 0 511 10 488 0 l 360 0 b 292 28 333 0 311 8 l 232 88 l 232 -265 l 153 -265 l 153 661 l 232 661 l 232 208 b 240 189 232 200 235 194 l 343 86 b 363 78 349 81 356 78 l 461 78 b 482 86 468 78 476 81 l 603 207 b 611 226 608 213 611 218 l 611 661 l 690 661 l 690 115 l 718 0 "},"¶":{"ha":954,"x_min":0,"x_max":0,"o":"m 799 213 b 769 143 799 186 789 163 l 656 29 b 586 0 636 10 613 0 l 425 0 b 356 29 399 0 375 10 l 242 143 b 213 213 222 163 213 186 l 213 264 l 299 264 l 299 218 b 307 199 299 211 301 204 l 411 94 b 431 86 417 89 422 86 l 581 86 b 600 94 589 86 594 89 l 704 199 b 713 218 710 204 713 211 l 713 840 l 429 840 l 429 926 l 799 926 l 799 213 m 213 397 l 213 840 l 29 840 l 29 926 l 299 926 l 299 397 "},"·":{"ha":719,"x_min":0,"x_max":0,"o":"m 483 810 l 483 926 l 600 926 l 600 810 m 125 810 l 125 926 l 242 926 l 242 810 m 583 -101 b 554 -175 583 -132 576 -153 l 493 -236 b 425 -264 474 -256 451 -264 l 286 -264 l 286 -186 l 422 -186 b 442 -178 431 -186 436 -183 l 496 -124 b 504 -97 501 -118 504 -104 l 504 583 l 364 583 l 364 661 l 583 661 l 583 -101 m 146 0 l 146 583 l 6 583 l 6 661 l 225 661 l 225 0 "},"¸":{"ha":1121,"x_min":0,"x_max":0,"o":"m 956 456 l 958 817 l 603 457 b 535 429 583 438 561 429 l 97 429 l 97 497 l 535 497 b 554 506 543 497 549 500 l 914 861 l 553 858 l 553 926 l 1024 926 l 1024 456 "},"¹":{"ha":1121,"x_min":0,"x_max":0,"o":"m 586 429 b 518 457 560 429 538 438 l 163 817 l 165 456 l 97 456 l 97 926 l 568 926 l 568 858 l 207 861 l 567 506 b 586 497 572 500 578 497 l 1024 497 l 1024 429 "},"º":{"ha":1121,"x_min":0,"x_max":0,"o":"m 553 0 l 553 68 l 914 65 l 554 421 b 535 429 549 426 543 429 l 97 429 l 97 497 l 535 497 b 603 469 561 497 583 489 l 958 110 l 956 471 l 1024 471 l 1024 0 "},"»":{"ha":536,"x_min":0,"x_max":0,"o":"m 440 464 l 389 515 l 357 483 b 307 464 343 469 328 464 l 144 464 b 94 483 125 464 108 469 l 50 528 b 29 579 36 542 29 560 l 29 649 b 50 700 29 668 36 686 l 94 744 b 144 764 108 758 125 764 l 381 764 l 381 813 b 375 828 381 818 379 824 l 346 857 b 332 863 342 861 338 863 l 146 863 b 132 857 140 863 136 861 l 94 819 l 50 863 l 94 907 b 144 926 108 921 125 926 l 333 926 b 383 907 353 926 369 921 l 428 863 b 449 811 442 849 449 831 l 449 556 b 454 542 449 550 450 546 l 486 510 m 381 700 l 147 700 b 132 694 142 700 136 699 l 103 665 b 97 650 99 661 97 656 l 97 578 b 103 563 97 572 99 567 l 132 533 b 147 528 136 529 142 528 l 303 528 b 318 533 308 528 314 529 l 375 590 b 381 604 379 594 381 599 "},"¼":{"ha":536,"x_min":0,"x_max":0,"o":"m 478 579 b 457 528 478 560 471 542 l 413 483 b 363 464 399 469 382 464 l 174 464 b 124 483 154 464 138 469 l 79 528 b 58 579 65 542 58 560 l 58 811 b 79 863 58 831 65 849 l 124 907 b 174 926 138 921 154 926 l 363 926 b 413 907 382 926 399 921 l 457 863 b 478 811 471 849 478 831 l 478 579 m 410 813 b 404 828 410 818 408 824 l 375 857 b 361 863 371 861 367 863 l 176 863 b 161 857 171 863 165 861 l 132 828 b 126 813 128 824 126 818 l 126 578 b 132 563 126 572 128 567 l 161 533 b 176 528 165 529 171 528 l 361 528 b 375 533 367 528 371 529 l 404 563 b 410 578 408 567 410 572 "},"½":{"ha":1121,"x_min":0,"x_max":0,"o":"m 586 429 b 567 421 578 429 572 426 l 207 65 l 568 68 l 568 0 l 97 0 l 97 471 l 165 471 l 163 110 l 518 469 b 586 497 538 489 560 497 l 1024 497 l 1024 429 "},"¾":{"ha":1069,"x_min":0,"x_max":0,"o":"m 582 318 l 582 160 b 590 140 582 151 585 146 l 644 86 b 664 78 650 81 657 78 l 811 78 b 831 86 819 78 825 81 l 913 169 l 968 114 l 882 28 b 814 0 863 8 842 0 l 661 0 b 590 29 635 0 610 10 l 543 76 l 494 28 b 426 0 475 8 456 0 l 236 0 b 168 28 210 0 188 8 l 107 89 b 78 160 88 108 78 133 l 78 240 b 107 310 78 267 88 290 l 165 368 b 235 397 185 388 208 397 l 503 397 l 503 501 b 494 521 503 508 500 515 l 440 575 b 421 583 435 581 429 583 l 239 583 b 219 575 231 583 225 581 l 160 515 l 106 571 l 168 633 b 236 661 188 653 208 661 l 425 661 b 493 633 451 661 475 651 l 543 583 l 593 633 b 661 661 613 653 633 661 l 814 661 b 882 633 840 661 863 653 l 943 572 b 972 501 963 553 972 529 l 972 318 m 893 501 b 885 521 893 508 890 515 l 831 575 b 811 583 825 581 819 583 l 664 583 b 644 575 656 583 650 581 l 590 521 b 582 501 585 515 582 508 l 582 397 l 893 397 m 503 319 l 239 319 b 219 311 231 319 225 317 l 165 257 b 157 238 160 251 157 244 l 157 160 b 165 140 157 151 160 146 l 219 86 b 239 78 225 81 232 78 l 421 78 b 440 86 428 78 435 81 l 494 140 b 503 160 500 146 503 151 "},"¿":{"ha":767,"x_min":0,"x_max":0,"o":"m 669 163 b 640 89 669 136 661 110 l 579 28 b 511 0 560 8 538 0 l 313 0 l 271 -131 l 204 -108 l 239 1 b 188 28 239 1 214 1 l 126 89 b 97 160 107 108 97 133 l 97 501 b 126 572 97 529 107 553 l 188 633 b 256 661 207 653 229 661 l 453 661 l 496 794 l 563 771 l 526 660 b 579 633 526 660 554 658 l 640 572 b 669 501 660 553 669 528 l 669 163 m 590 501 b 582 521 590 510 588 515 l 528 575 b 508 583 522 581 517 583 l 501 583 l 339 78 l 508 78 b 528 86 517 78 522 81 l 582 140 b 590 167 588 146 590 160 m 258 583 b 239 575 251 583 244 581 l 185 521 b 176 501 179 515 176 510 l 176 160 b 185 140 176 153 179 146 l 239 86 b 258 78 244 81 250 78 l 264 78 l 428 583 "},"À":{"ha":696,"x_min":0,"x_max":0,"o":"m 336 544 l 336 661 l 453 661 l 453 544 m 533 -237 b 467 -265 514 -257 493 -265 l 292 -265 b 225 -237 265 -265 244 -257 l 165 -178 b 136 -108 146 -158 136 -136 l 136 54 b 165 124 136 81 146 104 l 346 304 b 354 324 351 310 354 315 l 354 406 l 433 406 l 433 322 b 406 254 433 296 425 274 l 224 72 b 215 53 218 67 215 60 l 215 -104 b 225 -125 215 -112 219 -119 l 281 -181 b 300 -187 286 -186 293 -187 l 460 -187 b 479 -179 468 -187 474 -185 l 563 -96 l 618 -153 "},"Á":{"ha":421,"x_min":0,"x_max":0,"o":"m 153 544 l 153 661 l 269 661 l 269 544 m 171 -265 l 171 397 l 250 397 l 250 -265 "},"Â":{"ha":842,"x_min":0,"x_max":0,"o":"m 679 0 l 679 431 l 90 431 l 90 503 l 751 503 l 751 0 "},"Ã":{"ha":1121,"x_min":0,"x_max":0,"o":"m 603 569 b 594 550 597 564 594 558 l 592 124 l 844 382 l 893 333 l 560 0 l 228 333 l 276 382 l 529 124 l 526 550 b 554 617 526 578 536 599 l 864 926 l 913 879 "},"Ä":{"ha":842,"x_min":0,"x_max":0,"o":"m 400 583 l 400 -108 b 372 -175 400 -135 390 -157 l 288 -260 l 232 -204 l 314 -122 b 321 -103 319 -117 321 -110 l 321 583 l 226 583 l 226 661 l 321 661 l 321 764 b 350 838 321 794 328 815 l 411 899 b 479 926 431 918 453 926 l 615 926 l 615 849 l 482 849 b 463 840 474 849 468 846 l 408 786 b 400 760 403 781 400 767 l 400 661 l 615 661 l 615 583 "},"Å":{"ha":842,"x_min":0,"x_max":0,"o":"m 565 339 b 519 321 557 331 543 321 b 472 338 499 321 479 331 l 313 497 b 283 497 304 506 293 507 l 124 338 l 72 389 l 253 569 b 299 586 260 576 278 586 b 346 568 321 586 338 576 l 504 410 b 533 410 514 401 524 401 l 718 594 l 769 543 m 565 69 b 519 51 557 61 543 51 b 472 68 499 51 479 61 l 313 228 b 283 228 304 236 293 238 l 124 68 l 72 119 l 253 300 b 299 317 260 307 278 317 b 346 299 321 317 338 307 l 504 140 b 533 140 514 132 524 132 l 718 325 l 769 274 "},"Æ":{"ha":1121,"x_min":0,"x_max":0,"o":"m 976 111 l 667 421 b 647 429 661 426 656 429 l 221 432 l 479 179 l 431 131 l 97 464 l 431 796 l 479 747 l 221 494 l 647 497 b 714 469 675 497 696 488 l 1024 160 "},"Ç":{"ha":813,"x_min":0,"x_max":0,"o":"m 622 74 l 433 263 b 406 331 414 282 406 306 b 433 399 406 356 414 379 l 622 588 l 676 533 l 493 350 b 493 311 482 339 482 322 l 676 128 m 353 74 l 164 263 b 136 331 144 282 136 306 b 164 399 136 356 144 379 l 353 588 l 407 533 l 224 350 b 224 311 213 339 213 322 l 407 128 "},"È":{"ha":813,"x_min":0,"x_max":0,"o":"m 676 331 b 649 263 676 306 668 282 l 460 74 l 406 128 l 589 311 b 589 350 600 322 600 339 l 406 533 l 460 588 l 649 399 b 676 331 668 379 676 356 m 407 331 b 379 263 407 306 399 282 l 190 74 l 136 128 l 319 311 b 319 350 331 322 331 339 l 136 533 l 190 588 l 379 399 b 407 331 399 379 407 356 "},"É":{"ha":1389,"x_min":0,"x_max":0,"o":"m 1099 0 l 1099 117 l 1215 117 l 1215 0 m 636 0 l 636 117 l 753 117 l 753 0 m 174 0 l 174 117 l 290 117 l 290 0 "},"Ê":{"ha":421,"x_min":0,"x_max":0,"o":""},"Ë":{"ha":956,"x_min":0,"x_max":0,"o":"m 438 999 l 225 1211 l 325 1211 l 538 999 m 808 0 l 707 265 l 244 265 l 144 0 l 58 0 l 411 926 l 547 926 l 897 0 m 476 878 l 278 349 l 674 349 "},"Ì":{"ha":956,"x_min":0,"x_max":0,"o":"m 624 1026 b 572 1010 607 1015 590 1010 b 517 1028 553 1010 533 1017 l 394 1108 b 364 1108 385 1115 374 1115 l 250 1032 l 210 1089 l 329 1167 b 381 1183 346 1178 363 1183 b 436 1165 400 1183 419 1176 l 551 1088 b 582 1088 561 1081 572 1082 l 708 1167 l 746 1106 m 808 0 l 707 265 l 244 265 l 144 0 l 58 0 l 411 926 l 547 926 l 897 0 m 476 878 l 278 349 l 674 349 "},"Í":{"ha":1019,"x_min":0,"x_max":0,"o":"m 656 1026 b 604 1010 639 1015 622 1010 b 549 1028 585 1010 565 1017 l 426 1108 b 396 1108 417 1115 406 1115 l 282 1032 l 242 1089 l 361 1167 b 413 1183 378 1178 394 1183 b 468 1165 432 1183 451 1176 l 583 1088 b 614 1088 593 1081 604 1082 l 740 1167 l 778 1106 m 883 213 b 854 143 883 186 874 163 l 740 29 b 671 0 721 10 697 0 l 349 0 b 279 29 322 0 299 10 l 165 143 b 136 213 146 163 136 186 l 136 714 b 165 783 136 740 146 764 l 279 897 b 349 926 299 917 322 926 l 671 926 b 740 897 697 926 721 917 l 854 783 b 883 714 874 764 883 740 l 883 213 m 797 708 b 789 728 797 715 794 722 l 685 832 b 665 840 679 838 674 840 l 354 840 b 335 832 346 840 340 838 l 231 728 b 222 708 225 722 222 715 l 222 218 b 231 199 222 211 225 204 l 335 94 b 354 86 340 89 346 86 l 665 86 b 685 94 674 86 679 89 l 789 199 b 797 218 794 204 797 211 "},"Î":{"ha":1199,"x_min":0,"x_max":0,"o":"m 349 0 b 279 29 322 0 299 10 l 165 143 b 136 213 146 163 136 186 l 136 714 b 165 783 136 740 146 764 l 279 897 b 349 926 299 917 322 926 l 1063 926 l 1063 840 l 675 840 l 675 507 l 1063 507 l 1063 421 l 675 421 l 675 86 l 1063 86 l 1063 0 m 589 840 l 354 840 b 335 832 346 840 340 838 l 231 728 b 222 708 225 722 222 715 l 222 218 b 231 199 222 211 225 204 l 335 94 b 354 86 340 89 346 86 l 589 86 "},"Ï":{"ha":1089,"x_min":0,"x_max":0,"o":"m 601 318 l 601 160 b 610 140 601 151 604 146 l 664 86 b 683 78 669 81 676 78 l 831 78 b 850 86 839 78 844 81 l 932 169 l 988 114 l 901 28 b 833 0 882 8 861 0 l 681 0 b 610 29 654 0 629 10 l 563 76 l 514 28 b 446 0 494 8 471 0 l 256 0 b 188 28 231 0 207 8 l 126 89 b 97 160 107 108 97 133 l 97 501 b 126 572 97 529 107 553 l 188 633 b 256 661 206 651 229 661 l 444 661 b 514 632 471 661 494 651 l 563 583 l 613 633 b 681 661 632 653 653 661 l 833 661 b 901 633 860 661 882 653 l 963 572 b 992 501 982 553 992 529 l 992 318 m 913 501 b 904 521 913 508 910 515 l 850 575 b 831 583 844 581 839 583 l 683 583 b 664 575 675 583 669 581 l 610 521 b 601 501 604 515 601 508 l 601 397 l 913 397 m 525 501 b 517 521 525 510 522 515 l 463 575 b 443 583 457 581 450 583 l 258 583 b 239 575 251 583 244 581 l 185 521 b 176 501 179 515 176 510 l 176 160 b 185 140 176 153 179 146 l 239 86 b 258 78 244 81 250 78 l 443 78 b 463 86 451 78 457 81 l 517 140 b 525 160 522 146 525 153 "},"Ð":{"ha":842,"x_min":0,"x_max":0,"o":"m 74 296 l 74 365 l 768 365 l 768 296 "},"Ñ":{"ha":1389,"x_min":0,"x_max":0,"o":"m 140 296 l 139 365 l 1250 365 l 1250 296 "},"Ò":{"ha":743,"x_min":0,"x_max":0,"o":"m 586 857 b 576 838 581 851 576 846 l 576 606 l 490 606 l 490 839 b 518 908 490 869 497 888 l 568 958 l 628 899 m 264 857 b 254 838 258 851 254 846 l 254 606 l 168 606 l 168 839 b 196 908 168 869 175 888 l 246 958 l 306 899 "},"Ó":{"ha":743,"x_min":0,"x_max":0,"o":"m 575 693 b 547 624 575 663 568 644 l 497 574 l 438 633 l 479 675 b 489 694 485 681 489 686 l 489 926 l 575 926 l 575 693 m 253 693 b 225 624 253 663 246 644 l 175 574 l 115 633 l 157 675 b 167 694 163 681 167 686 l 167 926 l 253 926 l 253 693 "},"Ô":{"ha":421,"x_min":0,"x_max":0,"o":"m 264 857 b 254 838 258 851 254 846 l 254 606 l 168 606 l 168 839 b 196 908 168 869 175 888 l 246 958 l 306 899 "},"Õ":{"ha":421,"x_min":0,"x_max":0,"o":"m 253 693 b 225 624 253 663 246 644 l 175 574 l 115 633 l 157 675 b 167 694 163 681 167 686 l 167 926 l 253 926 l 253 693 "},"Ö":{"ha":842,"x_min":0,"x_max":0,"o":"m 363 546 l 363 663 l 479 663 l 479 546 m 90 294 l 90 364 l 751 364 l 751 294 m 363 0 l 363 117 l 479 117 l 479 0 "},"×":{"ha":1121,"x_min":0,"x_max":0,"o":"m 690 131 l 642 179 l 900 432 l 474 429 b 407 457 446 429 425 439 l 97 767 l 144 815 l 454 506 b 474 497 460 500 465 497 l 900 494 l 642 747 l 690 796 l 1024 463 "},"Ø":{"ha":656,"x_min":0,"x_max":0,"o":"m 413 810 l 413 926 l 529 926 l 529 810 m 117 810 l 117 926 l 233 926 l 233 810 m 267 -264 l 183 -264 l 281 1 l 39 661 l 124 661 l 324 114 l 525 661 l 607 661 "},"Ù":{"ha":829,"x_min":0,"x_max":0,"o":"m 504 1056 l 504 1172 l 621 1172 l 621 1056 m 208 1056 l 208 1172 l 325 1172 l 325 1056 m 458 410 l 458 0 l 372 0 l 372 410 l 39 926 l 140 926 l 417 500 l 692 926 l 790 926 "},"Ú":{"ha":399,"x_min":0,"x_max":0,"o":"m -18 0 l -86 0 l 417 933 l 485 933 "},"Û":{"ha":842,"x_min":0,"x_max":0,"o":"m 632 29 b 563 0 613 10 589 0 l 407 0 b 338 29 381 0 357 10 l 224 143 b 194 213 204 163 194 186 l 194 343 l 78 343 l 78 413 l 194 413 l 194 517 l 78 517 l 78 586 l 194 586 l 194 714 b 224 783 194 740 204 764 l 338 897 b 407 926 357 917 381 926 l 563 926 b 632 897 589 926 613 917 l 772 757 l 717 700 l 576 840 b 557 849 571 846 565 849 l 413 849 b 393 840 404 849 399 846 l 281 728 b 272 708 275 722 272 715 l 272 586 l 485 586 l 485 517 l 272 517 l 272 413 l 485 413 l 485 343 l 272 343 l 272 218 b 281 199 272 211 275 204 l 393 86 b 413 78 399 81 404 78 l 557 78 b 576 86 565 78 571 81 l 715 226 l 772 169 "},"Ü":{"ha":543,"x_min":0,"x_max":0,"o":"m 353 74 l 164 263 b 136 331 144 282 136 306 b 164 399 136 356 144 379 l 353 588 l 407 533 l 224 350 b 224 311 213 339 213 322 l 407 128 "},"Ý":{"ha":543,"x_min":0,"x_max":0,"o":"m 407 331 b 379 263 407 306 399 282 l 190 74 l 136 128 l 319 311 b 319 350 331 322 331 339 l 136 533 l 190 588 l 379 399 b 407 331 399 379 407 356 "},"Þ":{"ha":793,"x_min":0,"x_max":0,"o":"m 557 810 l 557 926 l 674 926 l 674 810 m 578 0 l 578 583 l 222 583 l 222 0 l 143 0 l 143 583 l 49 583 l 49 661 l 143 661 l 143 764 b 172 838 143 794 150 815 l 233 899 b 301 926 253 918 275 926 l 438 926 l 438 849 l 304 849 b 285 840 296 849 290 846 l 231 786 b 222 760 225 781 222 767 l 222 661 l 657 661 l 657 0 "},"ß":{"ha":793,"x_min":0,"x_max":0,"o":"m 578 0 l 578 849 l 304 849 b 285 840 296 849 290 846 l 231 786 b 222 760 225 781 222 767 l 222 661 l 438 661 l 438 583 l 222 583 l 222 0 l 143 0 l 143 583 l 49 583 l 49 661 l 143 661 l 143 764 b 172 838 143 794 150 815 l 233 899 b 301 926 253 918 275 926 l 657 926 l 657 0 "},"à":{"ha":842,"x_min":0,"x_max":0,"o":"m 460 290 l 460 -126 l 382 -126 l 382 290 l 171 290 l 171 368 l 382 368 l 382 586 l 171 586 l 171 664 l 382 664 l 382 929 l 460 929 l 460 664 l 671 664 l 671 586 l 460 586 l 460 368 l 671 368 l 671 290 "},"á":{"ha":421,"x_min":0,"x_max":0,"o":"m 151 406 l 151 522 l 268 522 l 268 406 "},"â":{"ha":421,"x_min":0,"x_max":0,"o":"m 253 -117 b 225 -186 253 -147 246 -165 l 175 -236 l 115 -176 l 157 -135 b 167 -115 163 -129 167 -124 l 167 117 l 253 117 l 253 -117 "},"ã":{"ha":743,"x_min":0,"x_max":0,"o":"m 575 -117 b 547 -186 575 -147 568 -165 l 497 -236 l 438 -176 l 479 -135 b 489 -115 485 -129 489 -124 l 489 117 l 575 117 l 575 -117 m 253 -117 b 225 -186 253 -147 246 -165 l 175 -236 l 115 -176 l 157 -135 b 167 -115 163 -129 167 -124 l 167 117 l 253 117 l 253 -117 "},"ä":{"ha":1619,"x_min":0,"x_max":0,"o":"m 1483 96 b 1467 56 1483 81 1476 65 l 1431 19 b 1386 0 1417 6 1403 0 l 1235 0 b 1190 19 1218 0 1204 6 l 1154 56 b 1138 96 1144 65 1138 81 l 1138 449 b 1154 489 1138 464 1144 479 l 1190 525 b 1235 544 1204 539 1218 544 l 1386 544 b 1431 525 1403 544 1417 539 l 1467 489 b 1483 449 1476 479 1483 464 l 1483 96 m 1035 96 b 1018 56 1035 81 1028 65 l 982 19 b 938 0 968 6 954 0 l 786 0 b 742 19 769 0 756 6 l 706 56 b 689 96 696 65 689 81 l 689 449 b 706 489 689 464 696 479 l 742 525 b 786 544 756 539 769 544 l 938 544 b 982 525 954 544 968 539 l 1018 489 b 1035 449 1028 479 1035 464 l 1035 96 m 368 0 l 300 0 l 803 933 l 871 933 m 482 485 b 465 444 482 469 475 454 l 429 408 b 385 389 415 394 401 389 l 233 389 b 189 408 217 389 203 394 l 153 444 b 136 485 143 454 136 469 l 136 838 b 153 878 136 853 143 868 l 189 914 b 233 933 203 928 217 933 l 385 933 b 429 914 401 933 415 928 l 465 878 b 482 838 475 868 482 853 l 482 485 m 1418 443 b 1414 451 1418 446 1417 449 l 1389 476 b 1381 479 1388 478 1383 479 l 1240 479 b 1232 476 1238 479 1233 478 l 1207 451 b 1203 443 1204 449 1203 446 l 1203 101 b 1207 93 1203 99 1204 96 l 1232 68 b 1240 65 1233 67 1238 65 l 1381 65 b 1389 68 1383 65 1388 67 l 1414 93 b 1418 104 1417 96 1418 101 m 969 443 b 965 451 969 446 968 449 l 940 476 b 932 479 939 478 935 479 l 792 479 b 783 476 789 479 785 478 l 758 451 b 754 443 756 449 754 446 l 754 101 b 758 93 754 99 756 96 l 783 68 b 792 65 785 67 789 65 l 932 65 b 940 68 935 65 939 67 l 965 93 b 969 104 968 96 969 101 m 417 832 b 413 840 417 835 415 838 l 388 865 b 379 868 386 867 382 868 l 239 868 b 231 865 236 868 232 867 l 206 840 b 201 832 203 838 201 835 l 201 490 b 206 482 201 488 203 485 l 231 457 b 239 454 232 456 236 454 l 379 454 b 388 457 382 454 386 456 l 413 482 b 417 493 415 485 417 490 "},"å":{"ha":956,"x_min":0,"x_max":0,"o":"m 636 1028 l 478 1186 l 319 1028 l 219 1028 l 403 1211 l 553 1211 l 736 1028 m 808 0 l 707 265 l 244 265 l 144 0 l 58 0 l 411 926 l 547 926 l 897 0 m 476 878 l 278 349 l 674 349 "},"æ":{"ha":886,"x_min":0,"x_max":0,"o":"m 621 1028 l 463 1186 l 304 1028 l 204 1028 l 388 1211 l 538 1211 l 721 1028 m 175 0 l 175 926 l 750 926 l 750 840 l 261 840 l 261 507 l 750 507 l 750 421 l 261 421 l 261 86 l 750 86 l 750 0 "},"ç":{"ha":956,"x_min":0,"x_max":0,"o":"m 521 999 l 421 999 l 633 1211 l 733 1211 m 808 0 l 707 265 l 244 265 l 144 0 l 58 0 l 411 926 l 547 926 l 897 0 m 476 878 l 278 349 l 674 349 "},"è":{"ha":886,"x_min":0,"x_max":0,"o":"m 553 1056 l 553 1172 l 669 1172 l 669 1056 m 257 1056 l 257 1172 l 374 1172 l 374 1056 m 175 0 l 175 926 l 750 926 l 750 840 l 261 840 l 261 507 l 750 507 l 750 421 l 261 421 l 261 86 l 750 86 l 750 0 "},"é":{"ha":886,"x_min":0,"x_max":0,"o":"m 518 999 l 306 1211 l 406 1211 l 618 999 m 175 0 l 175 926 l 750 926 l 750 840 l 261 840 l 261 507 l 750 507 l 750 421 l 261 421 l 261 86 l 750 86 l 750 0 "},"ê":{"ha":597,"x_min":0,"x_max":0,"o":"m 285 999 l 185 999 l 397 1211 l 497 1211 m 78 0 l 78 78 l 256 78 l 256 849 l 78 849 l 78 926 l 519 926 l 519 849 l 342 849 l 342 78 l 519 78 l 519 0 "},"ë":{"ha":597,"x_min":0,"x_max":0,"o":"m 457 1028 l 299 1186 l 140 1028 l 40 1028 l 224 1211 l 374 1211 l 557 1028 m 78 0 l 78 78 l 256 78 l 256 849 l 78 849 l 78 926 l 519 926 l 519 849 l 342 849 l 342 78 l 519 78 l 519 0 "},"ì":{"ha":597,"x_min":0,"x_max":0,"o":"m 389 1056 l 389 1172 l 506 1172 l 506 1056 m 93 1056 l 93 1172 l 210 1172 l 210 1056 m 78 0 l 78 78 l 256 78 l 256 849 l 78 849 l 78 926 l 519 926 l 519 849 l 342 849 l 342 78 l 519 78 l 519 0 "},"í":{"ha":597,"x_min":0,"x_max":0,"o":"m 313 999 l 100 1211 l 200 1211 l 413 999 m 78 0 l 78 78 l 256 78 l 256 849 l 78 849 l 78 926 l 519 926 l 519 849 l 342 849 l 342 78 l 519 78 l 519 0 "},"î":{"ha":1019,"x_min":0,"x_max":0,"o":"m 514 999 l 414 999 l 626 1211 l 726 1211 m 883 213 b 854 143 883 186 874 163 l 740 29 b 671 0 721 10 697 0 l 349 0 b 279 29 322 0 299 10 l 165 143 b 136 213 146 163 136 186 l 136 714 b 165 783 136 740 146 764 l 279 897 b 349 926 299 917 322 926 l 671 926 b 740 897 697 926 721 917 l 854 783 b 883 714 874 764 883 740 l 883 213 m 797 708 b 789 728 797 715 794 722 l 685 832 b 665 840 679 838 674 840 l 354 840 b 335 832 346 840 340 838 l 231 728 b 222 708 225 722 222 715 l 222 218 b 231 199 222 211 225 204 l 335 94 b 354 86 340 89 346 86 l 665 86 b 685 94 674 86 679 89 l 789 199 b 797 218 794 204 797 211 "},"ï":{"ha":1019,"x_min":0,"x_max":0,"o":"m 668 1028 l 510 1186 l 351 1028 l 251 1028 l 435 1211 l 585 1211 l 768 1028 m 883 213 b 854 143 883 186 874 163 l 740 29 b 671 0 721 10 697 0 l 349 0 b 279 29 322 0 299 10 l 165 143 b 136 213 146 163 136 186 l 136 714 b 165 783 136 740 146 764 l 279 897 b 349 926 299 917 322 926 l 671 926 b 740 897 697 926 721 917 l 854 783 b 883 714 874 764 883 740 l 883 213 m 797 708 b 789 728 797 715 794 722 l 685 832 b 665 840 679 838 674 840 l 354 840 b 335 832 346 840 340 838 l 231 728 b 222 708 225 722 222 715 l 222 218 b 231 199 222 211 225 204 l 335 94 b 354 86 340 89 346 86 l 665 86 b 685 94 674 86 679 89 l 789 199 b 797 218 794 204 797 211 "},"ð":{"ha":1189,"x_min":0,"x_max":0,"o":"m 1053 163 b 1026 96 1053 136 1046 115 l 961 31 b 890 0 942 11 918 0 l 299 0 b 228 31 271 0 247 11 l 163 96 b 136 163 143 115 136 136 l 136 764 b 163 831 136 790 143 811 l 228 896 b 299 926 247 915 271 926 l 890 926 b 961 896 918 926 942 915 l 1026 831 b 1053 764 1046 811 1053 790 l 1053 163 m 975 763 b 968 782 975 769 974 776 l 910 840 b 889 849 904 846 897 849 l 300 849 b 279 840 292 849 285 846 l 221 782 b 214 763 215 776 214 769 l 214 164 b 221 144 214 157 215 150 l 279 86 b 300 78 285 81 292 78 l 494 78 l 494 428 l 400 428 l 400 506 l 494 506 l 494 608 b 524 682 494 639 501 660 l 585 743 b 653 771 604 763 626 771 l 789 771 l 789 693 l 656 693 b 636 685 647 693 642 690 l 582 631 b 574 604 576 625 574 611 l 574 506 l 789 506 l 789 428 l 574 428 l 574 78 l 889 78 b 910 86 897 78 904 81 l 968 144 b 975 165 974 150 975 158 "},"ñ":{"ha":1019,"x_min":0,"x_max":0,"o":"m 511 999 l 299 1211 l 399 1211 l 611 999 m 883 213 b 854 143 883 186 874 163 l 740 29 b 671 0 721 10 697 0 l 349 0 b 279 29 322 0 299 10 l 165 143 b 136 213 146 163 136 186 l 136 714 b 165 783 136 740 146 764 l 279 897 b 349 926 299 917 322 926 l 671 926 b 740 897 697 926 721 917 l 854 783 b 883 714 874 764 883 740 l 883 213 m 797 708 b 789 728 797 715 794 722 l 685 832 b 665 840 679 838 674 840 l 354 840 b 335 832 346 840 340 838 l 231 728 b 222 708 225 722 222 715 l 222 218 b 231 199 222 211 225 204 l 335 94 b 354 86 340 89 346 86 l 665 86 b 685 94 674 86 679 89 l 789 199 b 797 218 794 204 797 211 "},"ò":{"ha":972,"x_min":0,"x_max":0,"o":"m 508 999 l 408 999 l 621 1211 l 721 1211 m 817 213 b 788 143 817 186 807 163 l 674 29 b 604 0 654 10 631 0 l 368 0 b 299 29 342 0 318 10 l 185 143 b 156 213 165 163 156 186 l 156 926 l 242 926 l 242 218 b 250 199 242 211 244 204 l 354 94 b 374 86 360 89 365 86 l 599 86 b 618 94 607 86 613 89 l 722 199 b 731 218 728 204 731 211 l 731 926 l 817 926 l 817 213 "},"ó":{"ha":972,"x_min":0,"x_max":0,"o":"m 644 1028 l 486 1186 l 328 1028 l 228 1028 l 411 1211 l 561 1211 l 744 1028 m 817 213 b 788 143 817 186 807 163 l 674 29 b 604 0 654 10 631 0 l 368 0 b 299 29 342 0 318 10 l 185 143 b 156 213 165 163 156 186 l 156 926 l 242 926 l 242 218 b 250 199 242 211 244 204 l 354 94 b 374 86 360 89 365 86 l 599 86 b 618 94 607 86 613 89 l 722 199 b 731 218 728 204 731 211 l 731 926 l 817 926 l 817 213 "},"ô":{"ha":972,"x_min":0,"x_max":0,"o":"m 506 999 l 293 1211 l 393 1211 l 606 999 m 817 213 b 788 143 817 186 807 163 l 674 29 b 604 0 654 10 631 0 l 368 0 b 299 29 342 0 318 10 l 185 143 b 156 213 165 163 156 186 l 156 926 l 242 926 l 242 218 b 250 199 242 211 244 204 l 354 94 b 374 86 360 89 365 86 l 599 86 b 618 94 607 86 613 89 l 722 199 b 731 218 728 204 731 211 l 731 926 l 817 926 l 817 213 "},"õ":{"ha":361,"x_min":0,"x_max":0,"o":"m 146 0 l 146 583 l 6 583 l 6 661 l 225 661 l 225 0 "},"ö":{"ha":646,"x_min":0,"x_max":0,"o":"m 482 743 l 324 901 l 165 743 l 65 743 l 249 926 l 399 926 l 582 743 "},"÷":{"ha":646,"x_min":0,"x_max":0,"o":"m 469 788 b 418 771 453 776 436 771 b 363 789 399 771 379 778 l 240 869 b 210 869 231 876 219 876 l 96 793 l 56 850 l 175 928 b 226 944 192 939 208 944 b 282 926 246 944 265 938 l 397 849 b 428 849 407 842 418 843 l 554 928 l 592 867 "},"ø":{"ha":646,"x_min":0,"x_max":0,"o":"m 110 800 l 110 869 l 538 869 l 538 800 "},"ù":{"ha":646,"x_min":0,"x_max":0,"o":"m 526 846 b 506 801 526 826 518 814 l 435 731 b 388 714 421 717 406 714 l 260 714 b 213 731 242 714 226 717 l 142 801 b 121 846 129 814 121 826 l 121 926 l 190 926 l 190 849 b 197 836 190 843 193 840 l 250 783 b 264 779 254 779 258 779 l 383 779 b 397 783 389 779 393 779 l 450 836 b 457 849 454 840 457 843 l 457 926 l 526 926 l 526 846 "},"ú":{"ha":646,"x_min":0,"x_max":0,"o":"m 265 810 l 265 926 l 382 926 l 382 810 "},"û":{"ha":646,"x_min":0,"x_max":0,"o":"m 471 806 b 378 714 471 754 429 714 l 267 714 b 175 806 215 714 175 754 l 175 922 b 267 1014 175 974 215 1014 l 378 1014 b 471 922 429 1014 471 974 l 471 806 m 397 914 b 371 940 397 928 385 940 l 275 940 b 249 914 261 940 249 928 l 249 814 b 275 788 249 800 263 788 l 371 788 b 397 814 383 788 397 800 "},"ü":{"ha":646,"x_min":0,"x_max":0,"o":"m 282 -261 l 226 -206 l 308 -124 l 225 -40 l 282 17 l 421 -122 "},"ý":{"ha":646,"x_min":0,"x_max":0,"o":"m 417 714 l 317 714 l 529 926 l 629 926 m 117 714 l 17 714 l 229 926 l 329 926 "},"þ":{"ha":646,"x_min":0,"x_max":0,"o":"m 338 -124 l 419 -206 l 364 -261 l 225 -122 l 364 17 l 421 -40 "},"ÿ":{"ha":646,"x_min":0,"x_max":0,"o":"m 399 743 l 249 743 l 65 926 l 165 926 l 324 768 l 482 926 l 582 926 "}}}
